<?xml version="1.0" encoding="utf-8"?>
<!-- StablePay favicon: simple "S" monogram in a rounded square -->
<svg xmlns="http://www.w3.org/2000/svg" viewBox="0 0 64 64" width="64" height="64">
  <defs>
    <linearGradient id="g" x1="0" x2="1" y1="0" y2="1">
      <stop offset="0%" stop-color="#00b894"/>
      <stop offset="100%" stop-color="#0984e3"/>
    </linearGradient>
  </defs>
  <rect width="64" height="64" rx="12" fill="url(#g)" />
  <path d="M40.5 21.5c-2.8-1.6-6-1.8-9-1-4.6 1.3-9 6-9 12.6 0 7.9 6.1 13.4 13.5 13.4 3.3 0 6.5-1 9.2-3.1l-3.1-4.1c-2 1.4-4.1 2-6.3 2-3.8 0-6.9-2.7-7.6-6.7h17.4c.2-1.9.3-3.8.3-5.6 0-3.4-.2-6-1.2-7.5zM25.8 30.6c.6-3.8 3.7-6.4 7.6-6.4 1.9 0 3.8.5 5.4 1.7l-2.9 3.8c-1.2-.8-2.5-1.2-3.8-1.2-3.2 0-5.5 2.3-6.2 5.8h.9z" fill="#fff"/>
</svg>
