<svg width="40" height="40" viewBox="0 0 40 40" fill="none" xmlns="http://www.w3.org/2000/svg">
  <rect width="40" height="40" rx="8" fill="url(#paint0_linear)"/>
  <path d="M20 8C13.373 8 8 13.373 8 20C8 26.627 13.373 32 20 32C26.627 32 32 26.627 32 20C32 13.373 26.627 8 20 8Z" fill="url(#paint1_linear)" fill-opacity="0.2"/>
  <path d="M18.5 14C18.5 13.4477 18.9477 13 19.5 13H20.5C21.0523 13 21.5 13.4477 21.5 14V15.5H23C23.8284 15.5 24.5 16.1716 24.5 17V17.5C24.5 18.0523 24.0523 18.5 23.5 18.5H21.5V21.5H23C23.8284 21.5 24.5 22.1716 24.5 23V23.5C24.5 24.0523 24.0523 24.5 23.5 24.5H21.5V26C21.5 26.5523 21.0523 27 20.5 27H19.5C18.9477 27 18.5 26.5523 18.5 26V24.5H17C15.8954 24.5 15 23.6046 15 22.5V22C15 21.4477 15.4477 21 16 21H18.5V19H16.5C15.6716 19 15 18.3284 15 17.5V17C15 16.1716 15.6716 15.5 16.5 15.5H18.5V14Z" fill="white"/>
  <defs>
    <linearGradient id="paint0_linear" x1="0" y1="0" x2="40" y2="40" gradientUnits="userSpaceOnUse">
      <stop stop-color="#F7931A"/>
      <stop offset="0.5" stop-color="#EF6C00"/>
      <stop offset="1" stop-color="#E65100"/>
    </linearGradient>
    <linearGradient id="paint1_linear" x1="8" y1="8" x2="32" y2="32" gradientUnits="userSpaceOnUse">
      <stop stop-color="white" stop-opacity="0.3"/>
      <stop offset="1" stop-color="white" stop-opacity="0"/>
    </linearGradient>
  </defs>
</svg>
