<?xml version="1.0" encoding="UTF-8"?>
<svg
  version="1.1"
  xmlns="http://www.w3.org/2000/svg"
  width="280"
  height="280"
  viewBox="0 0 280 280"
>
<path d="M0 0 C92.4 0 184.8 0 280 0 C280 92.4 280 184.8 280 280 C187.6 280 95.2 280 0 280 C0 187.6 0 95.2 0 0 Z " fill="#E99A41" transform="translate(0,0)"/>
<path d="M0 0 C92.4 0 184.8 0 280 0 C280 92.4 280 184.8 280 280 C187.6 280 95.2 280 0 280 C0 187.6 0 95.2 0 0 Z M130.1875 1.0546875 C101.52347702 2.12330239 75.23709658 14.55697067 53 32 C52.01 32.66 51.02 33.32 50 34 C50 34.66 50 35.32 50 36 C49.43539062 36.24105469 48.87078125 36.48210938 48.2890625 36.73046875 C27.05736852 48.50572565 13.96118668 79.84425102 6.6875 101.5 C0.51443388 123.33893613 -0.34765758 146.91900673 5 169 C5.16097168 169.70608398 5.32194336 170.41216797 5.48779297 171.13964844 C9.33548112 187.76491386 15.95395277 204.13093269 26 218 C26.70253906 218.99644531 27.40507812 219.99289063 28.12890625 221.01953125 C48.97255573 249.81870496 79.93232154 269.62678307 114.82421875 276.4921875 C123.33058579 277.85236919 131.50676243 278.18306675 140.125 278.1875 C141.35476562 278.19974609 142.58453125 278.21199219 143.8515625 278.22460938 C155.74356665 278.24334678 167.24339166 276.96109804 178.625 273.4375 C179.8783313 273.05223145 179.8783313 273.05223145 181.15698242 272.65917969 C216.00156447 261.52298021 245.92902282 238.16832558 263.25244141 205.64892578 C265.67201911 200.83897044 267.87343966 195.94501903 270 191 C270.52335937 189.84242188 271.04671875 188.68484375 271.5859375 187.4921875 C273.07236679 183.82128202 274.13765117 180.15271593 275.0625 176.3125 C275.22298828 175.68150391 275.38347656 175.05050781 275.54882812 174.40039062 C278.20377535 163.62066515 279.36465816 153.16548157 279.3125 142.0625 C279.30686035 140.79559326 279.3012207 139.52868652 279.29541016 138.22338867 C278.79855557 99.29409365 263.73889356 65.55102374 236.18359375 38.15234375 C229.64082073 31.99051821 222.52816799 26.8609936 215 22 C214.06800781 21.39414062 213.13601562 20.78828125 212.17578125 20.1640625 C198.49436882 11.73005372 183.77359326 6.19355298 167.99267578 3.35839844 C166.20788361 3.0373895 164.42951415 2.68113823 162.65234375 2.3203125 C151.86760873 0.32970401 141.09199991 0.89827049 130.1875 1.0546875 Z " fill="#FEFEFE" transform="translate(0,0)"/>
<path d="M0 0 C3.48670834 1.1094072 6.77484237 2.26337666 10 4 C10 7 10 7 7.9375 9.3125 C6.45169462 10.67185385 4.96215734 12.03064881 3.3972168 13.2980957 C-1.19340572 17.02273738 -4.662346 21.10362637 -8.125 25.875 C-8.62386719 26.54402344 -9.12273437 27.21304688 -9.63671875 27.90234375 C-12.99978493 32.45960575 -16.065657 37.15679986 -19 42 C-4.77299015 35.37396876 6.89431672 27.6359647 17.72265625 16.1875 C20 14 20 14 23 13 C24.82421875 14.21484375 24.82421875 14.21484375 26.6875 15.9375 C27.62142578 16.78634766 27.62142578 16.78634766 28.57421875 17.65234375 C29.27998047 18.31943359 29.27998047 18.31943359 30 19 C28.63658461 22.08493772 27.12051057 24.07384998 24.65625 26.36328125 C23.99133545 26.99572754 23.3264209 27.62817383 22.64135742 28.27978516 C21.93470947 28.95058105 21.22806152 29.62137695 20.5 30.3125 C11.41505213 39.14800125 4.51118812 48.56037292 -1 60 C12.34706459 54.0840038 22.79401474 45.76508645 32.68725586 35.20288086 C35.55312747 32.19209794 36.8482777 31.03793058 41 30 C42.98 32.64 44.96 35.28 47 38 C45.94941406 38.99257813 44.89882812 39.98515625 43.81640625 41.0078125 C32.17559222 52.19796965 23.77232123 63.23021399 17 78 C24.81992099 74.36134288 31.04716905 69.70065823 37.40283203 63.96386719 C41.81753603 60 41.81753603 60 44 60 C44.268125 59.401875 44.53625 58.80375 44.8125 58.1875 C47.24852643 53.70008289 50.41846132 52.13805138 55 50 C58.93264249 55.12435233 58.93264249 55.12435233 59.1875 58.4375 C57.67866901 61.69339846 55.5549827 63.54374589 52.96875 65.9921875 C39.0915796 80.14469858 34.30968563 98.36055688 34.46386719 117.60327148 C34.95506109 133.79929631 40.04560068 150.25920001 51.83984375 161.9453125 C53.59386128 163.59354776 55.38569859 165.20326863 57.2265625 166.75390625 C59 169 59 169 58.87109375 172.09765625 C57.96728561 175.10899908 56.75676136 177.40304843 55 180 C50.77884808 178.38424807 48.15152189 175.20851662 45.125 172 C36.78092837 163.40093737 27.44755017 156.83211345 17 151 C24.95429933 166.87177319 34.30720197 178.65547997 47 191 C46.09970429 192.34444159 45.17911978 193.67531438 44.25 195 C43.73953125 195.7425 43.2290625 196.485 42.703125 197.25 C41.86007813 198.11625 41.86007813 198.11625 41 199 C37 199 37 199 35.32421875 197.49609375 C34.78410156 196.81675781 34.24398437 196.13742188 33.6875 195.4375 C33.07390625 194.70144531 32.4603125 193.96539062 31.828125 193.20703125 C31.22484375 192.47871094 30.6215625 191.75039062 30 191 C21.3552842 181.08531307 9.6542788 173.85092364 -2 168 C2.88518864 176.40784167 7.76396199 184.50366035 14 192 C14.70125 192.9075 15.4025 193.815 16.125 194.75 C20.26297145 199.71556574 25.06367633 203.86031646 30 208 C28.28470274 211.73745963 26.50720409 213.7453688 23 216 C20.36922532 215.77465476 19.2565754 215.25046646 17.359375 213.3984375 C16.82828125 212.73070312 16.2971875 212.06296875 15.75 211.375 C6.51535994 200.42952136 -5.71303002 192.26897085 -19 187 C-11.2318099 199.79353776 -2.48863107 210.99759694 8.41796875 221.29296875 C10 223 10 223 10 225 C8.76115681 225.72767003 7.50831659 226.43154815 6.25 227.125 C5.55390625 227.51945313 4.8578125 227.91390625 4.140625 228.3203125 C2 229 2 229 0.0078125 228.375 C-2.37290479 226.74462551 -4.3131134 224.89466367 -6.375 222.875 C-23.71880156 207.01270137 -43.15025365 204.18739783 -65.86767578 204.82080078 C-75.42618907 205.36764012 -83.33284142 209.38339537 -91.63671875 213.92578125 C-92.41660156 214.28027344 -93.19648437 214.63476562 -94 215 C-94.66 214.67 -95.32 214.34 -96 214 C-95.48050781 213.35933594 -94.96101563 212.71867188 -94.42578125 212.05859375 C-93.72839844 211.19363281 -93.03101562 210.32867187 -92.3125 209.4375 C-91.57 208.52613281 -90.8275 207.61476562 -90.0625 206.67578125 C-88.4021941 204.52178591 -87.12754758 202.48283921 -85.8125 200.125 C-82.21307548 195.11409879 -75.70957354 194.2721778 -70 193 C-65.3564946 192.48467653 -60.79331453 192.42776302 -56.125 192.5 C-54.9071582 192.50773438 -53.68931641 192.51546875 -52.43457031 192.5234375 C-43.4336461 192.69630134 -35.42910207 193.7889135 -27 197 C-28.08259755 194.51425926 -29.20970246 192.07167837 -30.375 189.625 C-30.82166016 188.57699219 -30.82166016 188.57699219 -31.27734375 187.5078125 C-32.79008268 184.42301155 -33.91563001 182.46277468 -37.14697266 181.08374023 C-43.2211957 179.73903293 -49.4292563 179.726448 -55.625 179.8125 C-56.51445312 179.81314453 -57.40390625 179.81378906 -58.3203125 179.81445312 C-63.6297164 179.84958889 -68.7461515 180.23457918 -74 181 C-73.54738642 179.56068883 -73.08767021 178.12361001 -72.625 176.6875 C-72.24214844 175.48673828 -72.24214844 175.48673828 -71.8515625 174.26171875 C-71 172 -71 172 -69 169 C-63.41219827 167.41769369 -57.38691634 167.88917425 -51.625 167.9375 C-50.09166016 167.94426758 -50.09166016 167.94426758 -48.52734375 167.95117188 C-46.01816806 167.962897 -43.5091151 167.97930824 -41 168 C-41.2165625 167.31292969 -41.433125 166.62585938 -41.65625 165.91796875 C-41.9346875 165.01691406 -42.213125 164.11585938 -42.5 163.1875 C-42.7784375 162.29417969 -43.056875 161.40085938 -43.34375 160.48046875 C-44 158 -44 158 -44 155 C-50.6 155 -57.2 155 -64 155 C-63.67 151.7 -63.34 148.4 -63 145 C-57.72 145 -52.44 145 -47 145 C-47.52083333 142.81901042 -48.04166667 140.63802083 -48.5625 138.45703125 C-49 136 -49 136 -49 131 C-52.63 131 -56.26 131 -60 131 C-60 127.37 -60 123.74 -60 120 C-56.7 120 -53.4 120 -50 120 C-50.05800781 118.84628906 -50.11601562 117.69257813 -50.17578125 116.50390625 C-50.66168204 102.14665911 -48.35781663 88.92457245 -45 75 C-44.80776855 74.18869629 -44.61553711 73.37739258 -44.41748047 72.54150391 C-39.432855 52.09963949 -29.24658773 33.23514634 -15.7265625 17.18359375 C-13.92776066 15.01621029 -13.92776066 15.01621029 -12.5234375 12.44921875 C-10.92640664 9.88168453 -9.31767958 8.29762056 -7 6.375 C-4.55947162 4.33198192 -2.21660037 2.28586914 0 0 Z " fill="#C87F3E" transform="translate(196,25)"/>
<path d="M0 0 C2.35977596 1.97450641 4.68653501 3.97231598 7 6 C7.57492188 6.48339844 8.14984375 6.96679688 8.7421875 7.46484375 C18.07731684 15.91808299 23.07868206 28.00114046 26 40 C26.19078125 40.74378906 26.3815625 41.48757812 26.578125 42.25390625 C29.44410753 60.90932958 25.88514543 78.93906626 16 95 C11.34745545 101.08536359 5.94230107 106.19558637 0 111 C-16.32407439 82.26962907 -15.35916952 46.7010063 -7.18359375 15.62109375 C-5.37765358 10.09598965 -2.86661824 5.0452481 0 0 Z " fill="#FEFEFD" transform="translate(26,84)"/>
<path d="M0 0 C4.73333706 2.36666853 6.50519877 12.53117683 8.15576172 17.43945312 C8.43436035 18.28443359 8.71295898 19.12941406 9 20 C9.35408936 21.06250977 9.35408936 21.06250977 9.71533203 22.14648438 C13.06600402 32.71339124 13.361287 43.31766973 13.375 54.3125 C13.37708466 54.99218842 13.37916931 55.67187683 13.38131714 56.37216187 C13.37712809 68.434619 12.23508751 80.06810043 8.6875 91.625 C8.47456299 92.33648193 8.26162598 93.04796387 8.04223633 93.78100586 C6.19625654 99.75798177 3.83259024 105.41919455 1 111 C-12.66296085 99.84656258 -22.26762847 85.68868605 -25 68 C-26.38973471 53.70490945 -25.79125749 40.22238635 -20 27 C-19.5153125 25.87722656 -19.030625 24.75445312 -18.53125 23.59765625 C-13.98581201 14.22826078 -7.28015815 7.28015815 0 0 Z " fill="#FEFDFD" transform="translate(255,84)"/>
<path d="M0 0 C1.15113281 0.49757812 2.30226563 0.99515625 3.48828125 1.5078125 C13.23713989 5.91018493 21.77268158 12.08991647 29 20 C29 20.66 29 21.32 29 22 C19.16668607 26.60936591 9.61022681 29.75261998 -1 32 C-1.99773437 32.226875 -2.99546875 32.45375 -4.0234375 32.6875 C-27.58626303 37.23582021 -60.2810297 35.65014514 -81 22 C-79.02555167 19.64029346 -77.02504638 17.315636 -75 15 C-74.52820313 14.42507812 -74.05640625 13.85015625 -73.5703125 13.2578125 C-67.97316594 6.96464771 -60.51639054 3.48932912 -53 0 C-51.55753906 -0.69029297 -51.55753906 -0.69029297 -50.0859375 -1.39453125 C-35.51784227 -7.07327911 -14.15748586 -6.60031755 0 0 Z " fill="#FEFDFD" transform="translate(167,233)"/>
<path d="M0 0 C-5.34750633 11.74404501 -18.93654138 18.06793795 -30.24609375 22.7109375 C-49.95492837 29.47879955 -70.19342221 27.86814237 -89 19 C-97.35900376 14.66976199 -103.56927488 7.7245146 -110 1 C-103.40575214 -7.21305239 -81.67170804 -10.35388633 -71.72265625 -11.59765625 C-46.92163257 -14.06718249 -22.63672495 -10.43064777 0 0 Z " fill="#FEFEFD" transform="translate(196,24)"/>
<path d="M0 0 C1.31581055 -0.01160156 1.31581055 -0.01160156 2.65820312 -0.0234375 C18.19667322 0.02236492 18.19667322 0.02236492 22.09643555 3.69433594 C23.32741193 5.49355219 24.27062264 7.2733553 25.1875 9.25 C25.52394531 9.89195312 25.86039063 10.53390625 26.20703125 11.1953125 C28.5625 15.7908801 28.5625 15.7908801 28.5625 18.25 C26.81220238 17.93917128 25.06227306 17.62626821 23.3125 17.3125 C21.85070312 17.05146484 21.85070312 17.05146484 20.359375 16.78515625 C17.5625 16.25 17.5625 16.25 15.77294922 15.72924805 C10.6279301 14.61375517 5.17872227 15.02150245 -0.0625 15 C-1.29613281 14.979375 -2.52976563 14.95875 -3.80078125 14.9375 C-10.49944874 14.90902532 -16.16614908 15.32730898 -22.46240234 17.70019531 C-24.4375 18.25 -24.4375 18.25 -27.4375 17.25 C-26.94378906 16.41855469 -26.45007813 15.58710938 -25.94140625 14.73046875 C-25.30074219 13.64378906 -24.66007812 12.55710938 -24 11.4375 C-23.36191406 10.35855469 -22.72382812 9.27960938 -22.06640625 8.16796875 C-20.356733 5.31819358 -20.356733 5.31819358 -19.4375 2.25 C-13.43270443 -0.29994623 -6.40389128 -0.05621558 0 0 Z " fill="#FCF9F6" transform="translate(140.4375,203.75)"/>
<path d="M0 0 C1.19940861 3.59822583 0.65684625 4.78126579 -0.41015625 8.359375 C-2.17623145 15.06099065 -2.4969409 21.34445346 -2.4375 28.25 C-2.43427734 29.42280518 -2.43105469 30.59561035 -2.42773438 31.80395508 C-2.28017411 41.03601226 -0.99702916 49.26312481 2 58 C0.94039062 57.43410156 -0.11921875 56.86820313 -1.2109375 56.28515625 C-2.59895102 55.54425714 -3.98697226 54.80337247 -5.375 54.0625 C-6.07367188 53.68931641 -6.77234375 53.31613281 -7.4921875 52.93164062 C-11.22879122 50.93252108 -11.22879122 50.93252108 -15 49 C-16.66041626 43.23109249 -16.18600947 37.08219222 -16.18530273 31.13500977 C-16.1874897 29.07221858 -16.20567653 27.00996245 -16.22460938 24.94726562 C-16.22654297 23.63564453 -16.22847656 22.32402344 -16.23046875 20.97265625 C-16.23457764 19.77906494 -16.23868652 18.58547363 -16.24291992 17.35571289 C-15.94898523 13.2952784 -15.57761982 9.47675811 -12.48779297 6.58447266 C-11.91174316 6.2807373 -11.33569336 5.97700195 -10.7421875 5.6640625 C-10.11699219 5.32246094 -9.49179688 4.98085937 -8.84765625 4.62890625 C-8.19667969 4.29761719 -7.54570312 3.96632813 -6.875 3.625 C-6.21628906 3.27050781 -5.55757812 2.91601562 -4.87890625 2.55078125 C-3.26160069 1.68353044 -1.63193323 0.83940169 0 0 Z " fill="#FDFCFA" transform="translate(222,111)"/>
<path d="M0 0 C1.05960938 0.56589844 2.11921875 1.13179688 3.2109375 1.71484375 C4.59895102 2.45574286 5.98697226 3.19662753 7.375 3.9375 C8.42300781 4.49727539 8.42300781 4.49727539 9.4921875 5.06835938 C13.22879122 7.06747892 13.22879122 7.06747892 17 9 C18.47094497 15.39630225 18.18401233 21.91206151 18.1875 28.4375 C18.19974609 29.63955078 18.21199219 30.84160156 18.22460938 32.08007812 C18.24478315 44.27176422 18.24478315 44.27176422 16 49 C13.28515625 50.9609375 13.28515625 50.9609375 10.0625 52.375 C9.00160156 52.85710937 7.94070312 53.33921875 6.84765625 53.8359375 C4.92377619 54.62237955 2.97175683 55.34274772 1 56 C1.48509443 53.05010142 1.98004629 50.10559444 2.53515625 47.16796875 C5.42153044 30.85460943 4.03497919 15.98547821 0 0 Z " fill="#FEFCF9" transform="translate(59,111)"/>
<path d="M0 0 C-1.04959155 3.98844787 -2.65688337 7.60768566 -4.5625 11.25 C-4.99691406 12.10078125 -5.43132812 12.9515625 -5.87890625 13.828125 C-10.24520746 18.29896012 -16.67142335 18.08535607 -22.62890625 18.265625 C-24.60677074 18.27086785 -26.58468947 18.26552238 -28.5625 18.25 C-29.55185547 18.25773437 -30.54121094 18.26546875 -31.56054688 18.2734375 C-37.34819771 18.25807545 -42.5701648 18.10284913 -48 16 C-50.05859375 13.28515625 -50.05859375 13.28515625 -51.4375 10.0625 C-51.91058594 9.00160156 -52.38367188 7.94070312 -52.87109375 6.84765625 C-53.63556508 4.91928394 -54.34402468 2.96792595 -55 1 C-48.71007539 1.82042495 -48.71007539 1.82042495 -45.9765625 2.51171875 C-29.19121625 6.66388335 -16.01974835 0 0 0 Z " fill="#FEFCFA" transform="translate(169,57)"/>
<path d="M0 0 C-4.05395406 13.46070183 -14.16098425 24.94714109 -24.703125 33.89453125 C-27.10110662 35.97661699 -27.10110662 35.97661699 -29.109375 38.69921875 C-31 41 -31 41 -34 42 C-36.04296875 40.56640625 -36.04296875 40.56640625 -38.1875 38.5625 C-38.90292969 37.90378906 -39.61835937 37.24507812 -40.35546875 36.56640625 C-40.89816406 36.04949219 -41.44085938 35.53257812 -42 35 C-41.6208609 30.51352061 -38.45016976 28.36800265 -35.25 25.625 C-32.07901031 22.87370012 -29.20676841 20.25796188 -26.5703125 16.96875 C-23.58012687 13.51504016 -20.45006394 11.30982985 -16.625 8.875 C-15.99078125 8.45863281 -15.3565625 8.04226562 -14.703125 7.61328125 C-3.00874314 0 -3.00874314 0 0 0 Z " fill="#FEFCF9" transform="translate(89,192)"/>
<path d="M0 0 C4.91051042 4.07467886 9.46726276 8.36837596 13.94140625 12.91796875 C15.44608437 14.43977793 16.99289757 15.92024653 18.5625 17.375 C34 34 34 34 34 42 C23.52451285 38.85582011 12.26962507 31.26919852 5 23 C5 22.34 5 21.68 5 21 C4.34 21 3.68 21 3 21 C1.28641357 19.38161281 -0.3707726 17.70328319 -2 16 C-3.10157169 14.89324444 -4.20571993 13.78904707 -5.3125 12.6875 C-6.199375 11.800625 -7.08625 10.91375 -8 10 C-6.34908222 5.70761377 -3.26245434 3.1206085 0 0 Z " fill="#FEFCFA" transform="translate(55,45)"/>
<path d="M0 0 C16.93963558 6.05917734 30.69185271 19.47121955 42 33 C41.06725891 34.12894876 40.12859878 35.25300876 39.1875 36.375 C38.66542969 37.00148437 38.14335937 37.62796875 37.60546875 38.2734375 C36 40 36 40 33 42 C31.76878615 40.93987294 30.54014315 39.87675995 29.3125 38.8125 C28.62800781 38.22082031 27.94351563 37.62914062 27.23828125 37.01953125 C15.60290672 26.52129629 6.83967928 14.03602896 0 0 Z " fill="#FDFCFA" transform="translate(193,192)"/>
<path d="M0 0 C2.25422145 0.92705697 3.47242522 2.06305778 5.13305664 3.83691406 C5.91422852 4.65869141 5.91422852 4.65869141 6.71118164 5.49707031 C7.09790039 5.91859375 7.48461914 6.34011719 7.88305664 6.77441406 C5.80305663 11.35765539 2.66125266 14.38004625 -0.86694336 17.89941406 C-1.53218018 18.56303955 -2.19741699 19.22666504 -2.8828125 19.91040039 C-11.07558543 27.90568712 -20.41524972 35.45257624 -31.11694336 39.77441406 C-31.77694336 39.44441406 -32.43694336 39.11441406 -33.11694336 38.77441406 C-27.00273299 26.59394792 -19.268955 16.67077443 -9.80444336 6.96191406 C-9.11044434 6.23721924 -8.41644531 5.51252441 -7.70141602 4.76586914 C-7.03803223 4.10224365 -6.37464844 3.43861816 -5.69116211 2.75488281 C-5.09907959 2.15571045 -4.50699707 1.55653809 -3.89697266 0.93920898 C-2.11694336 -0.22558594 -2.11694336 -0.22558594 0 0 Z " fill="#FEFCFB" transform="translate(227.116943359375,46.2255859375)"/>
<path d="M0 0 C14.15370287 6.37179203 25.88614892 23.98647089 31.5625 37.875 C32.05781339 39.24426635 32.54432349 40.61703774 33 42 C17.37905194 36.30161423 5.3646864 22.5909744 -6 11 C-4.45657029 6.91894938 -2.50065501 3.58427218 0 0 Z " fill="#FEFCF9" transform="translate(38,63)"/>
<path d="M0 0 C0.495 0.99 0.495 0.99 1 2 C-0.08523375 4.4387614 -1.22135561 6.72710363 -2.5 9.0625 C-2.87382813 9.74642822 -3.24765625 10.43035645 -3.6328125 11.13500977 C-8.68367744 20.19628724 -15.04460667 27.20560224 -22.3125 34.5625 C-23.39047852 35.65485962 -23.39047852 35.65485962 -24.49023438 36.76928711 C-25.17021484 37.44483643 -25.85019531 38.12038574 -26.55078125 38.81640625 C-27.16606689 39.42943604 -27.78135254 40.04246582 -28.4152832 40.67407227 C-30 42 -30 42 -32 42 C-33.5078125 40.03125 -33.5078125 40.03125 -35.125 37.5 C-35.66382813 36.6646875 -36.20265625 35.829375 -36.7578125 34.96875 C-37.16773438 34.3190625 -37.57765625 33.669375 -38 33 C-36.45184464 29.54027253 -34.66301435 27.81296465 -31.6796875 25.46484375 C-29.86400692 23.88140138 -28.45184249 22.18470949 -26.9375 20.3125 C-19.65946937 11.79462787 -9.72100619 5.39812082 0 0 Z " fill="#FEFCFA" transform="translate(70,174)"/>
<path d="M0 0 C3.28099409 1.40103451 5.07414935 2.99346316 7.3125 5.75 C9.52427153 8.37970713 11.66744268 10.63923606 14.375 12.75 C22.14053777 19.15438733 27.59342981 28.60391453 33 37 C32.505 37.99 32.505 37.99 32 39 C19.2615356 33.06723803 7.58094812 26.90964143 -1.46484375 15.796875 C-3.71691505 13.1608628 -6.27191848 11.12923435 -9 9 C-7.48328036 4.44984107 -3.83108947 2.49942736 0 0 Z " fill="#FEFCF9" transform="translate(74,30)"/>
<path d="M0 0 C-7.16689373 11.09343657 -14.41483626 20.97282277 -24.484375 29.67578125 C-26.95150926 31.95519877 -28.97473106 34.32645573 -31 37 C-35.10958767 35.54955729 -38.43258745 33.48889248 -42 31 C-41.44719183 27.32262389 -40.18062192 25.97653445 -37.3125 23.6875 C-34.64493484 21.47937489 -32.4400681 19.39772383 -30.375 16.625 C-25.2719039 10.43435883 -8.02870652 -2.67623551 0 0 Z " fill="#FEFCFA" transform="translate(107,212)"/>
<path d="M0 0 C14.73117021 3.98139735 29.21775214 15.49410664 39 27 C40.23828125 29.2578125 40.23828125 29.2578125 41 31 C39.78622542 32.03908742 38.55320279 33.055719 37.3125 34.0625 C36.62800781 34.63097656 35.94351563 35.19945312 35.23828125 35.78515625 C33 37 33 37 30.5859375 37.01171875 C27.09355889 35.64536518 24.85694976 33.41003071 22.3125 30.75 C21.79284668 30.21640869 21.27319336 29.68281738 20.73779297 29.13305664 C12.34815018 20.35066906 5.38809415 10.92950805 0 0 Z " fill="#FDFBF8" transform="translate(176,211)"/>
<path d="M0 0 C3.17496129 0.33624845 5.2329933 1.67474497 7.75 3.5625 C8.67039062 4.24505859 8.67039062 4.24505859 9.609375 4.94140625 C10.29773438 5.46541016 10.29773438 5.46541016 11 6 C3.25617469 20.07047998 -13.32515276 31.42113245 -28 37 C-28.66 36.67 -29.32 36.34 -30 36 C-25.96737348 29.07854649 -21.40407892 22.78363056 -16.375 16.5625 C-15.82497314 15.87671875 -15.27494629 15.1909375 -14.70825195 14.484375 C-11.72786804 10.8460192 -8.77755779 7.84458583 -5 5 C-4.154375 4.071875 -3.30875 3.14375 -2.4375 2.1875 C-1.2309375 1.1046875 -1.2309375 1.1046875 0 0 Z " fill="#FDFBF9" transform="translate(206,31)"/>
<path d="M0 0 C2.80431481 0.32109224 3.69240564 0.61712596 5.484375 2.84765625 C5.90203125 3.57855469 6.3196875 4.30945313 6.75 5.0625 C7.17796875 5.79597656 7.6059375 6.52945313 8.046875 7.28515625 C8.36140625 7.85105469 8.6759375 8.41695312 9 9 C8.61328125 9.44730469 8.2265625 9.89460938 7.828125 10.35546875 C7.30734375 10.96003906 6.7865625 11.56460938 6.25 12.1875 C5.73953125 12.77917969 5.2290625 13.37085937 4.703125 13.98046875 C3.46924106 15.44358342 2.2790064 16.94387336 1.1171875 18.46484375 C-5.13055184 25.94599289 -13.90179426 31.66568701 -22 37 C-22.87914062 37.58007812 -23.75828125 38.16015625 -24.6640625 38.7578125 C-25.43492187 39.16773438 -26.20578125 39.57765625 -27 40 C-27.66 39.67 -28.32 39.34 -29 39 C-23.14012663 26.26278329 -15.93225851 15.7698399 -6.1875 5.6875 C-5.63626465 5.10540771 -5.0850293 4.52331543 -4.51708984 3.92358398 C-2.91796875 2.32421875 -2.91796875 2.32421875 0 0 Z " fill="#FDFCFA" transform="translate(241,64)"/>
<path d="M0 0 C0 3.74345388 -0.7808782 4.10750681 -3.25 6.8125 C-7.74629038 12.22738734 -11.03185995 18.13212959 -14.375 24.3125 C-14.89868164 25.27969971 -15.42236328 26.24689941 -15.96191406 27.2434082 C-18.7279398 32.36766804 -18.7279398 32.36766804 -20.99121094 37.72192383 C-22 40 -22 40 -24.6796875 41.3984375 C-26.26136719 41.88183594 -26.26136719 41.88183594 -27.875 42.375 C-28.92429688 42.71273437 -29.97359375 43.05046875 -31.0546875 43.3984375 C-33.89657536 43.97887613 -35.32489889 43.99508592 -38 43 C-36.65343295 39.26436239 -35.22485178 35.57119012 -33.734375 31.890625 C-33.0329926 30.08493839 -32.42027146 28.24555836 -31.8125 26.40625 C-27.61919103 15.63707015 -20.78304461 12.24372617 -10.71484375 7.40234375 C-6.55856207 5.39976416 -3.38756192 3.12056196 0 0 Z " fill="#E89B43" transform="translate(201,53)"/>
<path d="M0 0 C14.94882405 5.3133021 27.20504586 18.91929707 38 30 C36.52069807 33.96479572 34.76352943 36.77588233 32 40 C28.76803308 39.41727255 27.11324387 38.49661232 24.79296875 36.19140625 C24.20974854 35.61463135 23.62652832 35.03785645 23.02563477 34.44360352 C22.41905029 33.82283936 21.81246582 33.2020752 21.1875 32.5625 C20.56093506 31.9243335 19.93437012 31.28616699 19.28881836 30.62866211 C10.40165061 21.42669952 5.09118359 11.60604162 0 0 Z " fill="#FDFCFB" transform="translate(212,175)"/>
<path d="M0 0 C0.495 0.99 0.495 0.99 1 2 C-0.47517823 4.54995094 -2.00163559 6.9844722 -3.625 9.4375 C-8.190261 16.53892907 -12.68057039 23.65843819 -14.7265625 31.94140625 C-15.98198609 36.70313917 -16.68775775 39.23035156 -21.0703125 41.80078125 C-29.27112676 45 -29.27112676 45 -33 45 C-32.18667573 40.61579489 -31.15822898 36.30428347 -30 32 C-29.80083984 31.25105469 -29.60167969 30.50210938 -29.39648438 29.73046875 C-25.27423596 15.06547882 -25.27423596 15.06547882 -19.74609375 11.54296875 C-17.36003426 10.30018185 -14.98944187 9.37089406 -12.46875 8.390625 C-7.59767009 6.43780467 -3.92715736 3.41808141 0 0 Z " fill="#E89B42" transform="translate(216,72)"/>
<path d="M0 0 C0 9.57 0 19.14 0 29 C-9 27 -9 27 -14 25 C-14 18.07 -14 11.14 -14 4 C-3.33333333 0 -3.33333333 0 0 0 Z " fill="#FCF8F5" transform="translate(195,125)"/>
<path d="M0 0 C9 2 9 2 14 4 C14 10.93 14 17.86 14 25 C2.25 29 2.25 29 0 29 C0 19.43 0 9.86 0 0 Z " fill="#FEFCF9" transform="translate(87,125)"/>
<path d="M0 0 C6.93 0 13.86 0 21 0 C22.32 4.62 23.64 9.24 25 14 C15.43 14 5.86 14 -4 14 C-1 3 -1 3 0 0 Z " fill="#FDFBF9" transform="translate(131,180)"/>
<path d="M0 0 C9.57 0 19.14 0 29 0 C25 13 25 13 24 14 C22.5112814 14.08669432 21.018555 14.10703494 19.52734375 14.09765625 C18.62822266 14.09443359 17.72910156 14.09121094 16.80273438 14.08789062 C15.85720703 14.07951172 14.91167969 14.07113281 13.9375 14.0625 C12.98810547 14.05798828 12.03871094 14.05347656 11.06054688 14.04882812 C8.70696935 14.0370011 6.35351523 14.02052025 4 14 C3.32968281 12.0429132 2.66385317 10.08428887 2 8.125 C1.62875 7.03445312 1.2575 5.94390625 0.875 4.8203125 C0 2 0 2 0 0 Z " fill="#FEFDFC" transform="translate(127,85)"/>
<path d="M0 0 C0 3.76237612 -1.14069339 4.9827351 -3.25 8.0625 C-5.74988719 11.82986506 -7.60211768 15.28699773 -9.0625 19.5625 C-10.66759439 23.83379719 -10.66759439 23.83379719 -13.625 25.3125 C-14.73875 25.539375 -15.8525 25.76625 -17 26 C-18.80967897 26.83711198 -20.60070192 27.71529632 -22.375 28.625 C-23.24898437 29.07101563 -24.12296875 29.51703125 -25.0234375 29.9765625 C-25.67570313 30.31429687 -26.32796875 30.65203125 -27 31 C-26.71459486 29.43634416 -26.42136502 27.87411566 -26.125 26.3125 C-25.96257812 25.44238281 -25.80015625 24.57226562 -25.6328125 23.67578125 C-23.98759862 16.71916702 -23.98759862 16.71916702 -20.3125 14.04296875 C-18.6728125 13.12451172 -18.6728125 13.12451172 -17 12.1875 C-10.86569215 8.6444158 -5.40850141 4.59051136 0 0 Z " fill="#E89A41" transform="translate(235,88)"/>
<path d="M0 0 C-0.59896719 4.79173756 -2.24309033 9.04737014 -5 13 C-7.44160169 14.88218279 -10.04440853 16.05543846 -12.875 17.25 C-14.26998214 17.87631851 -15.66324425 18.50648326 -17.0546875 19.140625 C-17.72209961 19.44033203 -18.38951172 19.74003906 -19.07714844 20.04882812 C-20.96805733 20.984199 -22.64885492 22.03629138 -24.3828125 23.234375 C-27 25 -27 25 -29 25 C-23.46169086 13.39311808 -18.32901357 5.20920685 -6.00390625 0.78515625 C-3 0 -3 0 0 0 Z " fill="#C9803F" transform="translate(113,197)"/>
<path d="M0 0 C-0.37443708 1.56776502 -0.77572508 3.1291253 -1.1875 4.6875 C-1.40792969 5.55761719 -1.62835938 6.42773438 -1.85546875 7.32421875 C-4.46951621 13.43555838 -9.98919098 16.48468327 -15.5 19.6875 C-16.47646484 20.27241211 -16.47646484 20.27241211 -17.47265625 20.86914062 C-20.89715933 22.89271063 -24.24233222 24.64868486 -28 26 C-27.11183383 24.43682754 -26.21762068 22.87696336 -25.3046875 21.328125 C-24.34927803 19.6232626 -23.46840341 17.87605293 -22.6328125 16.109375 C-18.0659942 7.06662036 -10.69880032 0 0 0 Z " fill="#C98040" transform="translate(95,178)"/>
<path d="M0 0 C-0.25824001 1.56463064 -0.53223319 3.1266645 -0.8125 4.6875 C-0.96332031 5.55761719 -1.11414063 6.42773438 -1.26953125 7.32421875 C-2.95830511 13.51036899 -5.89787827 15.91033498 -11.375 19.0625 C-14.69819743 20.99148241 -17.7945333 22.83453312 -20.7890625 25.24609375 C-23 27 -23 27 -25 27 C-17.0181682 6.60198539 -17.0181682 6.60198539 -7 2 C-2.35616438 0 -2.35616438 0 0 0 Z " fill="#C9803F" transform="translate(75,160)"/>
<path d="M0 0 C-0.37903359 5.76392464 -0.80081738 11.05580868 -4 16 C-7.19608934 17.80697631 -10.50088154 18.92042702 -14 20 C-15.19625 20.4125 -16.3925 20.825 -17.625 21.25 C-18.40875 21.4975 -19.1925 21.745 -20 22 C-19.80664062 21.35933594 -19.61328125 20.71867187 -19.4140625 20.05859375 C-19.15367188 19.19363281 -18.89328125 18.32867187 -18.625 17.4375 C-18.33753906 16.52484375 -18.05007812 15.6121875 -17.75390625 14.671875 C-16.87906411 11.84413141 -16.87906411 11.84413141 -16.5625 8.1875 C-14.2444913 3.45876226 -10.62479187 2.65286789 -5.84765625 0.84765625 C-3 0 -3 0 0 0 Z " fill="#FDF9F4" transform="translate(99,162)"/>
<path d="M0 0 C1.73030291 0.28484846 3.45920714 0.57819938 5.1875 0.875 C6.15042969 1.03742188 7.11335937 1.19984375 8.10546875 1.3671875 C13.55023923 2.55754218 13.55023923 2.55754218 16 4 C17.49997872 6.52994476 18.67757922 8.81928205 19.8125 11.5 C20.12380859 12.18964844 20.43511719 12.87929687 20.75585938 13.58984375 C23 18.65025755 23 18.65025755 23 21 C20.83118027 20.29212134 18.6697125 19.57221097 16.515625 18.8203125 C14.07610126 17.97123332 14.07610126 17.97123332 11.796875 17.5546875 C9.43282442 16.98623259 7.95478279 16.46928118 6 15 C3.8070849 11.16375894 2.35760093 7.19516169 1 3 C0.67 2.01 0.34 1.02 0 0 Z " fill="#FCFAF7" transform="translate(163,182)"/>
<path d="M0 0 C1 2 1 2 -0.01171875 5.3359375 C-4.15963094 15.8258062 -4.15963094 15.8258062 -9 18.9140625 C-13.57082452 20.47127968 -17.31574001 21.60986501 -22 20 C-21.31874712 17.88691032 -20.60384554 15.78464989 -19.875 13.6875 C-19.48054687 12.51574219 -19.08609375 11.34398438 -18.6796875 10.13671875 C-16.60896547 6.26976576 -15.04321765 5.54593616 -11 4 C-9.51886719 3.42185547 -9.51886719 3.42185547 -8.0078125 2.83203125 C-7.05648437 2.49558594 -6.10515625 2.15914063 -5.125 1.8125 C-4.15820312 1.46832031 -3.19140625 1.12414062 -2.1953125 0.76953125 C-1.47085938 0.51558594 -0.74640625 0.26164062 0 0 Z " fill="#FDFBF8" transform="translate(185,76)"/>
<path d="M0 0 C1.40929077 2.81858155 0.48496791 4.71001151 -0.38574219 7.61328125 C-3.54960558 17.02546137 -3.54960558 17.02546137 -8.2265625 20.16796875 C-12.09279854 21.62959457 -15.8287725 23 -20 23 C-19.60190889 20.91303753 -19.1807572 18.8304656 -18.75 16.75 C-18.51796875 15.58984375 -18.2859375 14.4296875 -18.046875 13.234375 C-16.45463155 8.3150557 -14.28058536 6.67431789 -9.765625 4.296875 C-8.60546875 3.78640625 -7.4453125 3.2759375 -6.25 2.75 C-4.49429688 1.96882813 -4.49429688 1.96882813 -2.703125 1.171875 C-1.81109375 0.78515625 -0.9190625 0.3984375 0 0 Z " fill="#FDFBF8" transform="translate(203,94)"/>
<path d="M0 0 C2.42769012 0.70144325 4.84608878 1.42083657 7.2578125 2.17578125 C9.90858094 3.01554772 9.90858094 3.01554772 12.3046875 3.48046875 C14.60516486 4.05775835 16.10015467 4.5641722 18 6 C20.41659867 10.42360435 22 14.94074092 22 20 C16.43359375 19.4140625 16.43359375 19.4140625 14 19 C12.8346875 18.81179687 11.669375 18.62359375 10.46875 18.4296875 C6.34681803 16.73078311 5.63373713 15.50725326 3.89648438 11.58984375 C3.48366211 10.55537109 3.48366211 10.55537109 3.0625 9.5 C2.60907227 8.46552734 2.60907227 8.46552734 2.14648438 7.41015625 C0 2.41629464 0 2.41629464 0 0 Z " fill="#FEFAF7" transform="translate(97,77)"/>
<path d="M0 0 C-0.45294865 1.75140143 -0.91258748 3.50107344 -1.375 5.25 C-1.75785156 6.71179688 -1.75785156 6.71179688 -2.1484375 8.203125 C-3.66465274 13.18298789 -3.66465274 13.18298789 -5 15 C-8.15234375 16.484375 -8.15234375 16.484375 -11.9375 17.75 C-13.18402344 18.17796875 -14.43054688 18.6059375 -15.71484375 19.046875 C-19 20 -19 20 -22 20 C-21.39922992 17.97922793 -20.70692647 15.98612674 -20 14 C-19.73960938 13.09507812 -19.47921875 12.19015625 -19.2109375 11.2578125 C-18.10067786 8.06263783 -17.08464694 5.67658372 -15 3 C-10.20885599 0.90758971 -5.23039096 0 0 0 Z " fill="#FDFAF7" transform="translate(119,182)"/>
<path d="M0 0 C4.87732167 0.60966521 9.75861622 1.4168314 14 4 C15.79449221 6.50864147 16.66294626 9.13052513 17.5625 12.0625 C17.82095703 12.79533203 18.07941406 13.52816406 18.34570312 14.28320312 C18.98233852 16.16205393 19.50069627 18.08008314 20 20 C19.67 20.66 19.34 21.32 19 22 C4.30138077 16.89184924 4.30138077 16.89184924 1.26953125 12.484375 C0.03072896 8.28376621 -0.06203675 4.35808153 0 0 Z " fill="#FDFAF8" transform="translate(184,163)"/>
<path d="M0 0 C2.44723573 0.97003106 4.88882474 1.94792939 7.3203125 2.95703125 C9.8724672 4.01908071 9.8724672 4.01908071 12.1171875 4.51171875 C13.9375 5 13.9375 5 17 7 C18.92621137 11.84304573 20 16.78576652 20 22 C14.64669013 21.45094258 9.21303784 20.49217585 5 17 C3.00777095 12.79781195 1.96209754 8.5356027 1 4 C0.67074568 2.66565354 0.33947412 1.33178309 0 0 Z " fill="#FEFBF8" transform="translate(79,95)"/>
<path d="M0 0 C12.875 0.875 12.875 0.875 14 2 C14.14355117 6.00220653 14.04216403 9.99441683 14 14 C9.38 14.33 4.76 14.66 0 15 C0 10.05 0 5.1 0 0 Z " fill="#FDF7F0" transform="translate(112,132)"/>
<path d="M0 0 C13.875 1.875 13.875 1.875 15 3 C15.23481693 5.18292774 15.41363323 7.37203174 15.5625 9.5625 C15.64628906 10.76003906 15.73007813 11.95757812 15.81640625 13.19140625 C15.87699219 14.11824219 15.93757813 15.04507813 16 16 C14.783125 16.020625 13.56625 16.04125 12.3125 16.0625 C11.62800781 16.07410156 10.94351563 16.08570312 10.23828125 16.09765625 C8 16 8 16 3 15 C2.01 10.05 1.02 5.1 0 0 Z " fill="#FDF9F5" transform="translate(108,106)"/>
<path d="M0 0 C9.41002278 0.96355353 9.41002278 0.96355353 14 2 C16.29612756 11.41002278 16.29612756 11.41002278 16 16 C5.4935305 14.91312384 5.4935305 14.91312384 2 13 C0.09138528 8.92584166 -0.27839854 4.45437662 0 0 Z " fill="#FCFAF7" transform="translate(158,157)"/>
<path d="M0 0 C-0.56606279 4.69023454 -1.18537505 9.34500026 -2 14 C-11.41002278 16.29612756 -11.41002278 16.29612756 -16 16 C-15.43379473 11.30858495 -14.79435795 6.65934325 -14 2 C-12.04200486 1.66468585 -10.08359226 1.33180857 -8.125 1 C-6.48917969 0.7215625 -6.48917969 0.7215625 -4.8203125 0.4375 C-2 0 -2 0 0 0 Z " fill="#FDFAF6" transform="translate(174,106)"/>
<path d="M0 0 C0 4.95 0 9.9 0 15 C-4.29 14.67 -8.58 14.34 -13 14 C-13 9.71 -13 5.42 -13 1 C-8.54459632 0.39587747 -4.52021205 0 0 0 Z " fill="#FEFCFB" transform="translate(170,132)"/>
<path d="M0 0 C-0.33 4.29 -0.66 8.58 -1 13 C-8.425 14.485 -8.425 14.485 -16 16 C-15.01 11.38 -14.02 6.76 -13 2 C-4.5 0 -4.5 0 0 0 Z " fill="#FEFDFB" transform="translate(124,157)"/>
<path d="M0 0 C4.95 0 9.9 0 15 0 C14.34 4.29 13.68 8.58 13 13 C9.37 13 5.74 13 2 13 C0.72201065 8.28741428 0 4.95734952 0 0 Z " fill="#FDFBF8" transform="translate(134,110)"/>
<path d="M0 0 C-0.875 7.625 -0.875 7.625 -2 11 C-4.8359375 11.984375 -4.8359375 11.984375 -8.375 12.75 C-9.53773437 13.01296875 -10.70046875 13.2759375 -11.8984375 13.546875 C-15 14 -15 14 -18 13 C-15.0573612 2.64883528 -15.0573612 2.64883528 -11.25 0.3125 C-7.44905126 -0.05297584 -3.81768875 -0.13164444 0 0 Z " fill="#CA8140" transform="translate(122,171)"/>
<path d="M0 0 C-0.66 5.28 -1.32 10.56 -2 16 C-2.33 14.68 -2.66 13.36 -3 12 C-4.216875 12.495 -5.43375 12.99 -6.6875 13.5 C-9.92486738 14.72479441 -12.50099357 15.32803185 -16 15 C-16.125 7.375 -16.125 7.375 -15 4 C-12.12890625 2.578125 -12.12890625 2.578125 -8.5625 1.25 C-7.38816406 0.80140625 -6.21382812 0.3528125 -5.00390625 -0.109375 C-2 -1 -2 -1 0 0 Z " fill="#E89A43" transform="translate(198,113)"/>
<path d="M0 0 C1.23922223 3.71766668 0.57018942 5.43889537 -0.4375 9.1875 C-0.72496094 10.27417969 -1.01242188 11.36085938 -1.30859375 12.48046875 C-1.53675781 13.31191406 -1.76492187 14.14335938 -2 15 C-2.33 14.34 -2.66 13.68 -3 13 C-4.03125 13.33 -5.0625 13.66 -6.125 14 C-9.48426709 14.9715192 -12.49106202 15.17116771 -16 15 C-15.125 7.375 -15.125 7.375 -14 4 C-11.61933199 3.12012394 -9.38518099 2.42741106 -6.9375 1.8125 C-6.27427734 1.63525391 -5.61105469 1.45800781 -4.92773438 1.27539062 C-3.28812574 0.83894804 -1.64440762 0.41799781 0 0 Z " fill="#E89A41" transform="translate(177,93)"/>
<path d="M0 0 C3.63 0 7.26 0 11 0 C11.66 4.29 12.32 8.58 13 13 C8.05 13 3.1 13 -2 13 C-1.125 2.25 -1.125 2.25 0 0 Z " fill="#FEFDFC" transform="translate(136,156)"/>
<path d="M0 0 C0.17768136 4.53087463 0.21899967 7.99148446 -2 12 C-4.49609375 13.36328125 -4.49609375 13.36328125 -7.4375 14.3125 C-8.88962891 14.80169922 -8.88962891 14.80169922 -10.37109375 15.30078125 C-13 16 -13 16 -16 16 C-14.83867637 5.79075201 -14.83867637 5.79075201 -11.8125 2.9375 C-3 0 -3 0 0 0 Z " fill="#C98040" transform="translate(101,150)"/>
<path d="M0 0 C-0.33 5.61 -0.66 11.22 -1 17 C-1.33 17 -1.66 17 -2 17 C-2 15.02 -2 13.04 -2 11 C-2.66 11.165 -3.32 11.33 -4 11.5 C-7.73099794 12.12183299 -11.21873378 12.06408926 -15 12 C-14.67 8.37 -14.34 4.74 -14 1 C-12.04310963 0.63794536 -10.08442332 0.28558579 -8.125 -0.0625 C-7.03445312 -0.25972656 -5.94390625 -0.45695312 -4.8203125 -0.66015625 C-2 -1 -2 -1 0 0 Z " fill="#E79B44" transform="translate(172,121)"/>
<path d="M0 0 C0 3.3 0 6.6 0 10 C-4.72462048 12.4385138 -8.80154939 12.15517763 -14 12 C-13.67 8.7 -13.34 5.4 -13 2 C-8.49646738 0.24252386 -4.82360189 -0.19294408 0 0 Z " fill="#C87F3E" transform="translate(125,146)"/>
<path d="M0 0 C3.3 0 6.6 0 10 0 C10 3.63 10 7.26 10 11 C6.7 11 3.4 11 0 11 C0 7.37 0 3.74 0 0 Z " fill="#FDF6EE" transform="translate(136,134)"/>
</svg>
