<svg width="24" height="24" viewBox="0 0 24 24" fill="currentColor" xmlns="http://www.w3.org/2000/svg">
  <path d="M12 0C5.37 0 0 5.37 0 12C0 17.3 3.438 21.8 8.205 23.385C8.805 23.49 9.03 23.13 9.03 22.815C9.03 22.53 9.015 21.735 9.015 20.85C6 21.45 5.22 19.545 5.22 19.545C4.68 18.195 3.915 17.835 3.915 17.835C2.835 17.07 4.005 17.085 4.005 17.085C5.205 17.175 5.85 18.315 5.85 18.315C6.93 20.1 8.7 19.575 9.39 19.26C9.495 18.495 9.81 17.985 10.155 17.7C7.74 17.43 5.22 16.53 5.22 12.555C5.22 11.43 5.625 10.515 6.315 9.81C6.21 9.54 5.85 8.46 6.405 7.02C6.405 7.02 7.29 6.735 9.015 7.905C9.855 7.665 10.755 7.545 11.655 7.545C12.555 7.545 13.455 7.665 14.295 7.905C16.02 6.735 16.905 7.02 16.905 7.02C17.46 8.46 17.1 9.54 16.995 9.81C17.685 10.515 18.09 11.43 18.09 12.555C18.09 16.545 15.555 17.43 13.14 17.7C13.575 18.06 13.965 18.765 13.965 19.89C13.965 21.45 13.95 22.44 13.95 22.815C13.95 23.13 14.175 23.505 14.79 23.385C19.562 21.795 23 17.295 23 12C23 5.37 17.63 0 12 0Z"></path>
</svg>