<svg version="1.1" id="Layer_1" xmlns="http://www.w3.org/2000/svg" xmlns:xlink="http://www.w3.org/1999/xlink" x="0px" y="0px"
	 width="100%" viewBox="0 0 110 109" enable-background="new 0 0 110 109" xml:space="preserve">
<path fill="#010000" opacity="1.000000" stroke="none" 
	d="
M78.000000,110.000000 
	C52.000000,110.000000 26.500000,110.000000 1.000000,110.000000 
	C1.000000,73.666664 1.000000,37.333332 1.000000,1.000000 
	C37.666668,1.000000 74.333336,1.000000 111.000000,1.000000 
	C111.000000,37.333332 111.000000,73.666664 111.000000,110.000000 
	C100.166664,110.000000 89.333336,110.000000 78.000000,110.000000 
M70.033607,89.001930 
	C70.033607,89.001930 70.047966,89.086502 70.667122,89.177910 
	C71.241737,88.947456 71.816345,88.717003 72.890259,88.248734 
	C73.006416,87.911865 73.122574,87.575005 74.005104,87.135399 
	C79.947182,86.544167 83.319878,82.104652 87.184013,78.375137 
	C97.222473,68.686394 97.522865,48.845142 90.645294,38.623192 
	C84.052307,28.824203 74.741829,24.782230 63.335094,24.397985 
	C62.917248,24.265127 62.499401,24.132269 61.306736,23.961889 
	C60.535164,24.015944 59.763596,24.069996 58.269230,24.012825 
	C55.699322,24.902481 53.164528,25.915543 50.552933,26.658693 
	C42.660351,28.904589 30.078175,41.711475 31.081596,53.508713 
	C31.103672,53.705849 31.125748,53.902985 31.028204,54.920803 
	C31.066057,56.577152 31.103910,58.233498 31.076296,60.617275 
	C31.419792,61.768265 31.763288,62.919254 32.034481,64.879341 
	C33.999695,68.976448 35.964909,73.073547 38.157875,77.727165 
	C39.056030,78.504753 39.954185,79.282349 41.068645,80.561531 
	C41.361267,80.770256 41.653889,80.978989 42.223732,81.794388 
	C43.642834,82.850105 45.061932,83.905823 46.426899,85.180031 
	C46.426899,85.180031 46.747364,85.119263 47.325191,85.628464 
	C48.253246,86.063042 49.181297,86.497620 50.285034,87.342743 
	C50.285034,87.342743 50.670780,87.565735 50.670780,87.565735 
	C50.670780,87.565735 51.101353,87.451286 51.744808,87.639229 
	C52.178532,87.745461 52.612255,87.851692 53.483543,88.538200 
	C55.387909,88.861313 57.292274,89.184425 60.069939,89.647720 
	C63.027641,89.535805 65.985344,89.423897 69.343330,89.500496 
	C69.679382,89.523537 69.921455,89.383766 70.033607,89.001930 
z"/>
<path fill="#D38A33" opacity="1.000000" stroke="none" 
	d="
M46.481030,84.961540 
	C45.061932,83.905823 43.642834,82.850105 41.909271,81.296616 
	C41.347321,80.552544 41.099831,80.306244 40.852341,80.059937 
	C39.954185,79.282349 39.056030,78.504753 38.105270,77.135498 
	C39.287884,76.096428 40.537426,75.684090 41.752728,75.187889 
	C42.432892,74.910187 43.056286,74.493439 43.705261,74.139343 
	C43.104717,73.731178 42.504173,73.323006 42.039803,72.648254 
	C42.569984,71.925919 42.963997,71.470161 43.621643,70.812851 
	C44.921169,67.738739 45.957062,64.866180 47.201889,61.647430 
	C47.482082,58.307110 47.553345,55.312981 47.846046,52.071121 
	C50.592838,49.677479 49.737457,44.316795 55.150208,44.460865 
	C55.150208,45.875774 55.150208,47.090511 55.150208,48.033691 
	C56.658192,48.648262 57.947090,49.318569 59.317875,49.662815 
	C59.888588,49.806141 60.813629,49.420525 61.237392,48.961441 
	C61.526901,48.647808 61.314171,47.274410 61.179150,47.251804 
	C57.275379,46.598186 59.826015,43.547073 59.511482,41.841972 
	C62.224892,41.886776 64.516777,41.842495 66.910583,42.026199 
	C68.245277,46.741116 64.247536,48.937862 62.351360,52.237831 
	C59.278858,52.284962 56.516773,52.284962 53.286198,52.284962 
	C53.258938,52.536987 53.124138,53.783272 52.634117,55.028885 
	C51.947918,56.261398 51.616943,57.494583 51.285969,58.727764 
	C51.741955,58.830578 52.197941,58.933395 52.653931,59.036209 
	C52.997772,58.064682 53.341618,57.093159 54.078911,56.091675 
	C54.997974,56.039413 55.523582,56.017113 56.069565,56.323387 
	C56.168465,57.301136 56.246990,57.950310 56.291862,59.079544 
	C56.233517,60.201435 56.208836,60.843269 56.125511,61.830338 
	C56.096405,63.095467 56.125935,64.015358 55.948345,65.231216 
	C54.275322,69.005028 52.809414,72.482872 51.343502,75.960724 
	C51.860336,76.242805 52.377171,76.524887 52.894005,76.806969 
	C54.921261,73.558739 56.948517,70.310501 59.206654,66.929276 
	C59.890980,66.519363 60.344433,66.242439 60.954796,66.177818 
	C61.371819,66.624878 61.631931,66.859634 61.744835,67.390739 
	C61.045109,69.121399 60.492584,70.555717 59.706112,72.049301 
	C59.358109,72.741249 59.244061,73.373947 58.918118,74.201950 
	C58.178402,74.616989 57.650581,74.836716 56.922409,75.313049 
	C56.498871,76.398964 56.275684,77.228279 56.064941,78.332214 
	C56.097141,78.789062 56.116894,78.971268 56.101891,79.133179 
	C56.067131,79.112885 56.107803,79.043419 55.897278,79.123535 
	C55.413498,79.332977 55.165066,79.499382 54.969151,79.772980 
	C54.996845,79.843117 54.863586,79.913727 54.560982,79.971954 
	C53.350822,81.383286 52.443268,82.736397 51.873009,84.253830 
	C54.112617,85.053429 56.014935,85.688683 58.062767,86.496628 
	C58.452351,86.847076 58.707603,87.007004 58.983593,87.418579 
	C59.002758,88.047508 59.012360,88.406944 58.647316,88.736786 
	C56.530445,88.457451 54.788208,88.207687 53.045975,87.957932 
	C52.612255,87.851692 52.178532,87.745461 51.314877,87.372444 
	C50.654720,86.921310 50.396191,86.863495 50.109352,86.932198 
	C49.181297,86.497620 48.253246,86.063042 46.999256,85.336876 
	C46.673321,85.045288 46.481030,84.961540 46.481030,84.961540 
M51.067024,79.032440 
	C49.556698,79.732750 48.046375,80.433060 46.536049,81.133377 
	C46.947250,81.719963 47.358448,82.306541 47.769650,82.893127 
	C48.897892,81.786583 50.026138,80.680038 51.067024,79.032440 
M48.668831,70.534515 
	C48.526031,70.905693 48.383232,71.276863 48.240429,71.648033 
	C48.512501,71.716156 48.784573,71.784279 49.056641,71.852394 
	C49.122993,71.382088 49.189350,70.911789 48.668831,70.534515 
z"/>
<path fill="#D38A33" opacity="1.000000" stroke="none" 
	d="
M31.131601,52.915466 
	C30.078175,41.711475 42.660351,28.904589 50.552933,26.658693 
	C53.164528,25.915543 55.699322,24.902481 58.637794,24.442730 
	C59.018269,25.621269 59.030178,26.369900 58.825020,27.434795 
	C56.078228,28.350956 53.548515,28.950855 51.018803,29.550753 
	C50.988476,30.057508 50.958149,30.564264 50.927822,31.071020 
	C53.312672,32.405468 55.697517,33.739918 58.130154,35.272358 
	C58.098251,35.989269 58.018566,36.508183 57.646961,36.911850 
	C56.274857,36.961346 54.867577,36.747601 54.167717,37.352428 
	C49.712845,41.202415 46.529148,45.772884 46.566685,52.046112 
	C45.678932,52.161064 45.187481,52.290310 44.698036,52.332352 
	C44.700043,52.245148 44.892982,52.168579 44.892982,52.168579 
	C44.892982,52.168579 44.660591,52.334194 44.781479,52.747395 
	C44.829109,55.754230 44.755848,58.347866 44.525276,61.250160 
	C43.568592,63.371769 42.769222,65.184715 41.676170,66.876816 
	C40.869179,66.388908 40.355862,66.021858 39.883308,65.319572 
	C40.634731,63.336098 41.345387,61.687859 42.195183,59.942123 
	C42.325714,59.529514 42.317101,59.214397 42.325653,58.548702 
	C42.363018,57.496510 42.383217,56.794899 42.509178,55.809166 
	C42.149422,53.995823 41.683899,52.466602 41.181213,50.905071 
	C41.144047,50.872765 41.126850,50.775787 41.156876,50.599480 
	C41.154091,50.158657 41.013294,49.978539 40.619621,49.596893 
	C40.372284,49.123402 40.269852,48.935848 40.151791,48.470543 
	C39.796951,47.777607 39.457748,47.362411 38.848309,46.719738 
	C37.253712,45.152092 35.966862,44.099354 35.043434,47.026676 
	C34.759418,47.333179 34.754547,47.550766 34.779186,48.051605 
	C34.602165,48.518307 34.530819,48.704784 34.263271,49.080414 
	C34.003323,49.793716 33.939568,50.317863 33.824646,51.176956 
	C33.725319,51.960899 33.677162,52.409901 33.316032,52.861855 
	C32.379242,52.881695 31.755421,52.898579 31.131601,52.915466 
M48.473274,37.505901 
	C48.473274,37.505901 48.511276,37.493221 48.473274,37.505901 
z"/>
<path fill="#CE8836" opacity="1.000000" stroke="none" 
	d="
M59.042091,27.118532 
	C59.030178,26.369900 59.018269,25.621269 58.999191,24.498343 
	C59.763596,24.069996 60.535164,24.015944 61.867310,24.070343 
	C62.724819,24.338039 63.021759,24.497282 63.318699,24.656525 
	C74.741829,24.782230 84.052307,28.824203 90.645294,38.623192 
	C97.522865,48.845142 97.222473,68.686394 87.184013,78.375137 
	C83.319878,82.104652 79.947182,86.544167 73.571930,87.127396 
	C73.138748,87.119400 73.023636,87.015259 73.029495,86.689323 
	C73.030167,85.928886 73.024979,85.494392 73.323669,84.967896 
	C74.093170,84.247963 74.558784,83.620026 75.246254,82.869263 
	C77.646667,81.475815 79.825218,80.205200 82.203659,78.721024 
	C83.664146,77.022530 84.924744,75.537613 86.369942,73.835243 
	C86.180466,73.577995 85.606560,72.798843 85.032867,72.033173 
	C85.033066,72.046646 85.060005,72.042343 85.410278,72.009521 
	C86.843391,71.030266 87.926224,70.083832 89.385010,69.051437 
	C90.826500,63.992992 92.577530,59.037426 92.700920,54.041656 
	C92.775139,51.036667 90.313477,47.969036 88.979889,44.565502 
	C87.582649,41.723465 86.196945,39.245483 84.733421,36.562943 
	C83.185341,35.569489 81.715080,34.780598 80.284790,33.621628 
	C79.567635,32.931328 78.810493,32.611103 77.881348,32.269547 
	C77.709328,32.248211 77.364914,32.208767 77.020821,32.154240 
	C76.447250,32.063805 76.217781,32.027893 75.987534,31.606827 
	C75.078308,30.473019 74.254303,29.232618 73.247009,29.059664 
	C68.539711,28.251425 63.781872,27.737593 59.042091,27.118532 
z"/>
<path fill="#DA8E39" opacity="1.000000" stroke="none" 
	d="
M39.842545,65.654808 
	C40.355862,66.021858 40.869179,66.388908 41.643723,67.247993 
	C41.901016,68.733131 41.897079,69.726242 41.666241,70.893814 
	C41.594101,71.683807 41.748863,72.299324 41.903629,72.914841 
	C42.504173,73.323006 43.104717,73.731178 43.705261,74.139343 
	C43.056286,74.493439 42.432892,74.910187 41.752728,75.187889 
	C40.537426,75.684090 39.287884,76.096428 37.991394,76.857239 
	C35.964909,73.073547 33.999695,68.976448 32.354126,64.473816 
	C33.121796,64.386101 33.569817,64.703896 34.038605,65.363602 
	C34.815506,66.799492 35.571644,67.893471 36.358620,69.032074 
	C37.811058,67.624107 38.826801,66.639458 39.842545,65.654808 
z"/>
<path fill="#CB8333" opacity="1.000000" stroke="none" 
	d="
M59.021957,88.766373 
	C59.012360,88.406944 59.002758,88.047508 59.293655,87.397217 
	C60.392826,86.955116 61.191505,86.803879 62.387356,86.604660 
	C63.850609,86.563293 64.916687,86.569908 66.181458,86.693054 
	C66.937897,86.648010 67.495644,86.486435 68.380112,86.228882 
	C69.148811,86.038094 69.590797,85.943291 70.285568,86.055511 
	C71.366783,86.513443 72.195206,86.764351 73.023636,87.015259 
	C73.023636,87.015259 73.138748,87.119400 73.188744,87.178772 
	C73.122574,87.575005 73.006416,87.911865 72.326630,88.295883 
	C71.191330,88.590851 70.619644,88.838676 70.047966,89.086502 
	C70.047966,89.086502 70.033607,89.001930 69.851822,88.976723 
	C69.364433,88.944092 69.122101,89.064247 68.943047,89.311989 
	C65.985344,89.423897 63.027641,89.535805 59.617592,89.385735 
	C59.165241,89.123749 59.021961,88.766373 59.021957,88.766373 
z"/>
<path fill="#835924" opacity="1.000000" stroke="none" 
	d="
M34.017841,65.021698 
	C33.569817,64.703896 33.121796,64.386101 32.390278,64.069275 
	C31.763288,62.919254 31.419792,61.768265 31.318441,59.984547 
	C31.422998,57.601254 31.285412,55.850689 31.147823,54.100124 
	C31.125748,53.902985 31.103672,53.705849 31.106598,53.212090 
	C31.755421,52.898579 32.379242,52.881695 33.411011,53.308762 
	C33.885258,57.509045 33.951550,61.265369 34.017841,65.021698 
z"/>
<path fill="#865B25" opacity="1.000000" stroke="none" 
	d="
M58.647320,88.736786 
	C59.021961,88.766373 59.165241,89.123749 59.180939,89.315643 
	C57.292274,89.184425 55.387909,88.861313 53.264759,88.248062 
	C54.788208,88.207687 56.530445,88.457451 58.647320,88.736786 
z"/>
<path fill="#CF8C36" opacity="1.000000" stroke="none" 
	d="
M31.088013,54.510464 
	C31.285412,55.850689 31.422998,57.601254 31.351173,59.620834 
	C31.103910,58.233498 31.066057,56.577152 31.088013,54.510464 
z"/>
<path fill="#D38A33" opacity="1.000000" stroke="none" 
	d="
M63.326897,24.527256 
	C63.021759,24.497282 62.724819,24.338039 62.254715,24.089106 
	C62.499401,24.132269 62.917248,24.265127 63.326897,24.527256 
z"/>
<path fill="#865B25" opacity="1.000000" stroke="none" 
	d="
M70.357544,89.132202 
	C70.619644,88.838676 71.191330,88.590851 72.076981,88.414787 
	C71.816345,88.717003 71.241737,88.947456 70.357544,89.132202 
z"/>
<path fill="#865B25" opacity="1.000000" stroke="none" 
	d="
M50.197193,87.137466 
	C50.396191,86.863495 50.654720,86.921310 50.993149,87.278473 
	C51.101353,87.451286 50.670780,87.565735 50.670780,87.565735 
	C50.670780,87.565735 50.285034,87.342743 50.197193,87.137466 
z"/>
<path fill="#865B25" opacity="1.000000" stroke="none" 
	d="
M69.143188,89.406242 
	C69.122101,89.064247 69.364433,88.944092 69.869797,89.016357 
	C69.921455,89.383766 69.679382,89.523537 69.143188,89.406242 
z"/>
<path fill="#CB8333" opacity="1.000000" stroke="none" 
	d="
M46.453964,85.070786 
	C46.481030,84.961540 46.673321,85.045288 46.710342,85.082275 
	C46.747364,85.119263 46.426899,85.180031 46.453964,85.070786 
z"/>
<path fill="#DA8E39" opacity="1.000000" stroke="none" 
	d="
M40.960495,80.310730 
	C41.099831,80.306244 41.347321,80.552544 41.770660,80.993286 
	C41.653889,80.978989 41.361267,80.770256 40.960495,80.310730 
z"/>
<path fill="#B36F35" opacity="1.000000" stroke="none" 
	d="
M82.003777,78.934586 
	C79.825218,80.205200 77.646667,81.475815 75.007988,82.615372 
	C69.052238,77.828461 62.776985,77.481956 56.136646,79.153473 
	C56.116894,78.971268 56.097141,78.789062 56.239033,78.061028 
	C56.641373,76.695618 56.882065,75.876030 57.122757,75.056442 
	C57.650581,74.836716 58.178402,74.616989 59.066101,73.971802 
	C59.597340,73.027580 59.768703,72.508812 59.940067,71.990044 
	C60.492584,70.555717 61.045109,69.121399 62.020370,67.370361 
	C63.058414,66.948456 63.673710,66.843262 64.566643,66.690598 
	C63.561478,65.482338 62.752949,64.510445 61.923859,63.377342 
	C61.903301,63.216133 62.093365,62.951996 62.093365,62.951996 
	C62.093365,62.951996 62.418732,62.956207 62.801933,62.970757 
	C62.935165,62.320190 62.685204,61.655079 62.333176,60.749336 
	C62.164532,59.989952 62.097942,59.471199 62.023087,58.584534 
	C61.998859,57.478237 61.982906,56.739841 61.998772,55.796833 
	C62.030590,55.592216 62.095112,55.183125 62.453171,55.151627 
	C65.501045,55.034145 68.190857,54.948166 71.171097,54.772324 
	C72.039474,54.493958 72.617439,54.305443 73.096786,54.488178 
	C73.269035,56.282074 73.539902,57.704716 74.098557,59.187065 
	C74.582275,59.245453 74.778206,59.244133 75.109406,59.362083 
	C75.544609,59.315533 75.844543,59.149723 76.460510,58.989311 
	C77.406769,58.995762 78.036987,58.996803 78.840668,59.251434 
	C79.340500,60.019043 79.666870,60.533054 79.990814,61.301231 
	C79.982437,61.724751 79.976486,61.894100 79.913010,62.140564 
	C79.759804,62.393539 79.765106,62.569019 80.042931,62.973549 
	C81.642914,62.820377 83.071381,62.437778 84.585571,62.359207 
	C84.468887,62.721367 84.266479,62.779495 84.248413,63.018097 
	C84.642860,63.471020 84.852959,63.743469 85.134155,64.165184 
	C85.205246,64.314445 85.148277,64.640160 85.040375,64.941666 
	C85.726860,66.093887 86.521248,66.944611 87.272079,67.797241 
	C87.228531,67.799149 87.226906,67.711975 87.147873,68.059753 
	C86.399231,69.619133 85.729622,70.830742 85.060005,72.042343 
	C85.060005,72.042343 85.033066,72.046646 84.773392,71.979538 
	C82.083878,71.912422 79.654030,71.912422 76.449043,71.912422 
	C78.333046,74.294136 80.168411,76.614365 82.003777,78.934586 
z"/>
<path fill="#0D0701" opacity="1.000000" stroke="none" 
	d="
M56.101891,79.133179 
	C62.776985,77.481956 69.052238,77.828461 74.786133,82.738205 
	C74.558784,83.620026 74.093170,84.247963 73.007385,84.913422 
	C71.602409,85.250122 70.817596,85.549301 70.032776,85.848480 
	C69.590797,85.943291 69.148811,86.038094 68.027466,86.172470 
	C66.892982,86.333534 66.437874,86.455032 65.982765,86.576523 
	C64.916687,86.569908 63.850609,86.563293 62.000576,86.453308 
	C60.116833,86.341286 59.017040,86.332619 57.917252,86.323944 
	C56.014935,85.688683 54.112617,85.053429 52.007782,83.942459 
	C52.824703,82.282417 53.844147,81.098076 54.863586,79.913727 
	C54.863586,79.913727 54.996845,79.843117 55.208855,79.755325 
	C55.765293,79.586601 55.994274,79.378563 56.107803,79.043419 
	C56.107803,79.043419 56.067131,79.112885 56.101891,79.133179 
z"/>
<path fill="#C57A2F" opacity="1.000000" stroke="none" 
	d="
M73.195396,54.116928 
	C72.617439,54.305443 72.039474,54.493958 71.160233,54.452484 
	C69.614952,53.589813 68.380325,52.478817 67.124435,52.454235 
	C65.773491,52.427792 64.402588,53.420456 62.992046,53.668243 
	C62.849728,52.975582 62.755753,52.583145 62.661781,52.190704 
	C64.247536,48.937862 68.245277,46.741116 67.032143,41.752449 
	C67.590843,40.221561 68.129921,39.192402 68.972214,37.982491 
	C70.170837,36.502388 71.066254,35.203033 71.968384,33.935028 
	C71.975105,33.966381 71.912117,33.954369 72.292191,33.963600 
	C73.684387,33.969856 74.696510,33.966877 75.556274,34.291611 
	C75.287239,34.830116 75.170555,35.040909 74.937126,35.437233 
	C74.501701,36.267685 74.183029,36.912613 73.584015,37.710228 
	C73.201881,38.262878 73.100113,38.662849 72.999634,39.032173 
	C73.000916,39.001526 72.995964,39.060612 72.779198,39.153053 
	C72.319595,39.454659 72.135178,39.706589 71.876968,40.173496 
	C72.825638,40.557156 73.906532,40.768612 75.280548,40.979656 
	C75.964516,40.980743 76.355347,40.982239 76.678116,41.282349 
	C76.433891,42.377033 76.257729,43.173100 75.865402,44.195400 
	C72.545631,47.328476 74.479248,50.344780 75.193588,53.489117 
	C74.352966,53.797615 73.774185,53.957268 73.195396,54.116928 
M71.081207,45.271793 
	C71.296074,44.811779 71.510933,44.351761 71.725792,43.891747 
	C71.462364,43.853882 70.982796,43.744991 70.968346,43.788944 
	C70.789635,44.332775 70.678726,44.898880 71.081207,45.271793 
z"/>
<path fill="#DB8825" opacity="1.000000" stroke="none" 
	d="
M46.962986,52.060406 
	C46.529148,45.772884 49.712845,41.202415 54.167717,37.352428 
	C54.867577,36.747601 56.274857,36.961346 57.684967,37.155235 
	C58.014893,37.513870 58.119656,37.995899 57.975258,38.124802 
	C57.579601,38.342571 57.373806,38.493446 57.289078,39.012482 
	C57.736664,39.818085 58.108639,40.317535 58.648636,40.920296 
	C58.985229,41.237675 59.076328,41.480766 59.089951,41.752892 
	C59.826015,43.547073 57.275379,46.598186 61.179150,47.251804 
	C61.314171,47.274410 61.526901,48.647808 61.237392,48.961441 
	C60.813629,49.420525 59.888588,49.806141 59.317875,49.662815 
	C57.947090,49.318569 56.658192,48.648262 55.150208,48.033691 
	C55.150208,47.090511 55.150208,45.875774 55.150208,44.460865 
	C49.737457,44.316795 50.592838,49.677479 47.663055,52.050056 
	C47.258621,52.276730 46.962986,52.060406 46.962986,52.060406 
M53.981514,41.722313 
	C54.078274,41.305683 54.175034,40.889053 54.271790,40.472424 
	C53.990768,40.456078 53.709751,40.439728 53.428730,40.423378 
	C53.496372,40.850807 53.564018,41.278236 53.981514,41.722313 
z"/>
<path fill="#CB8333" opacity="1.000000" stroke="none" 
	d="
M58.975777,67.062263 
	C56.948517,70.310501 54.921261,73.558739 52.894005,76.806969 
	C52.377171,76.524887 51.860336,76.242805 51.343502,75.960724 
	C52.809414,72.482872 54.275322,69.005028 56.250633,65.145927 
	C57.379021,64.657845 57.998001,64.551018 58.686020,64.878830 
	C58.828629,65.896393 58.902199,66.479332 58.975777,67.062263 
z"/>
<path fill="#2D1606" opacity="1.000000" stroke="none" 
	d="
M59.511482,41.841972 
	C59.076328,41.480766 58.985229,41.237675 58.571220,40.612831 
	C57.955009,39.703480 57.584240,39.204906 57.213470,38.706329 
	C57.373806,38.493446 57.579601,38.342571 58.335480,38.233738 
	C62.116402,38.196926 65.392700,38.180084 68.668999,38.163242 
	C68.129921,39.192402 67.590843,40.221561 66.930206,41.524467 
	C64.516777,41.842495 62.224892,41.886776 59.511482,41.841972 
z"/>
<path fill="#DB8825" opacity="1.000000" stroke="none" 
	d="
M62.351357,52.237831 
	C62.755753,52.583145 62.849728,52.975582 62.814911,53.855286 
	C62.489120,54.622742 62.292114,54.902931 62.095108,55.183121 
	C62.095112,55.183125 62.030590,55.592216 61.676643,55.794262 
	C60.891533,55.994991 60.460369,55.993675 59.819511,55.968742 
	C59.609821,55.945126 59.189301,55.938015 58.808056,55.851204 
	C57.915203,55.819073 57.403595,55.873749 56.678978,55.915680 
	C56.465965,55.902927 56.049191,55.994816 56.049191,55.994816 
	C55.523582,56.017113 54.997974,56.039413 53.894829,55.961666 
	C53.140823,55.610729 53.031502,55.333374 52.989338,55.029552 
	C53.124138,53.783272 53.258938,52.536987 53.286198,52.284962 
	C56.516773,52.284962 59.278858,52.284962 62.351357,52.237831 
z"/>
<path fill="#B06F28" opacity="1.000000" stroke="none" 
	d="
M41.893143,70.719345 
	C41.897079,69.726242 41.901016,68.733131 41.937401,67.368851 
	C42.769222,65.184715 43.568592,63.371769 44.687981,61.569702 
	C45.669651,61.718262 46.331303,61.855942 46.992954,61.993622 
	C45.957062,64.866180 44.921169,67.738739 43.254791,70.739792 
	C42.380585,70.818642 42.136864,70.768997 41.893143,70.719345 
z"/>
<path fill="#2B1603" opacity="1.000000" stroke="none" 
	d="
M47.201889,61.647430 
	C46.331303,61.855942 45.669651,61.718262 44.845291,61.261040 
	C44.755848,58.347866 44.829109,55.754230 44.822197,52.755341 
	C44.742023,52.350082 44.696030,52.419556 44.696030,52.419556 
	C45.187481,52.290310 45.678932,52.161064 46.566685,52.046112 
	C46.962986,52.060406 47.258621,52.276730 47.441612,52.297791 
	C47.553345,55.312981 47.482082,58.307110 47.201889,61.647430 
z"/>
<path fill="#E69134" opacity="1.000000" stroke="none" 
	d="
M59.206650,66.929276 
	C58.902199,66.479332 58.828629,65.896393 58.779800,64.545807 
	C58.854652,62.861397 58.904762,61.944641 59.137444,60.801949 
	C59.551731,60.044518 59.783447,59.513027 60.261715,58.960037 
	C60.508263,58.938538 61.000641,58.884212 61.258194,58.903198 
	C61.687611,58.932270 61.859482,58.942356 62.031357,58.952442 
	C62.097942,59.471199 62.164532,59.989952 62.156273,61.063011 
	C62.193863,62.063614 62.306297,62.509911 62.418732,62.956207 
	C62.418732,62.956207 62.093365,62.951996 62.093365,62.951996 
	C62.093365,62.951996 61.903301,63.216133 61.748505,63.670822 
	C61.328430,64.738846 61.063156,65.352188 60.797882,65.965523 
	C60.344433,66.242439 59.890980,66.519363 59.206650,66.929276 
z"/>
<path fill="#CB8333" opacity="1.000000" stroke="none" 
	d="
M51.110703,79.302963 
	C50.026138,80.680038 48.897892,81.786583 47.769650,82.893127 
	C47.358448,82.306541 46.947250,81.719963 46.536049,81.133377 
	C48.046375,80.433060 49.556698,79.732750 51.110703,79.302963 
z"/>
<path fill="#4B2D08" opacity="1.000000" stroke="none" 
	d="
M58.954872,61.027885 
	C58.904762,61.944641 58.854652,62.861397 58.710762,64.111176 
	C57.998001,64.551018 57.379021,64.657845 56.457748,64.849960 
	C56.125935,64.015358 56.096405,63.095467 56.468094,61.748554 
	C57.564503,61.223652 58.259686,61.125767 58.954872,61.027885 
z"/>
<path fill="#2E1D07" opacity="1.000000" stroke="none" 
	d="
M52.634117,55.028885 
	C53.031502,55.333374 53.140823,55.610729 53.501377,55.991623 
	C53.341618,57.093159 52.997772,58.064682 52.653931,59.036209 
	C52.197941,58.933395 51.741955,58.830578 51.285969,58.727764 
	C51.616943,57.494583 51.947918,56.261398 52.634117,55.028885 
z"/>
<path fill="#A56729" opacity="1.000000" stroke="none" 
	d="
M60.954796,66.177818 
	C61.063156,65.352188 61.328430,64.738846 61.769058,63.832031 
	C62.752949,64.510445 63.561478,65.482338 64.566643,66.690598 
	C63.673710,66.843262 63.058414,66.948456 62.167580,67.074020 
	C61.631931,66.859634 61.371819,66.624878 60.954796,66.177818 
z"/>
<path fill="#C87D27" opacity="1.000000" stroke="none" 
	d="
M59.137444,60.801945 
	C58.259686,61.125767 57.564503,61.223652 56.526733,61.403320 
	C56.208836,60.843269 56.233517,60.201435 56.576843,59.134823 
	C57.556583,58.425831 58.217682,58.141617 58.989471,57.852730 
	C59.100166,57.848053 59.123047,58.068455 59.293556,58.197922 
	C59.667950,58.528431 59.851646,58.746483 60.015167,58.981537 
	C59.783447,59.513027 59.551731,60.044518 59.137444,60.801945 
z"/>
<path fill="#936128" opacity="1.000000" stroke="none" 
	d="
M54.560982,79.971954 
	C53.844147,81.098076 52.824703,82.282417 51.670486,83.778130 
	C52.443268,82.736397 53.350822,81.383286 54.560982,79.971954 
z"/>
<path fill="#8D5415" opacity="1.000000" stroke="none" 
	d="
M58.878777,57.857399 
	C58.217682,58.141617 57.556583,58.425831 56.610504,58.654766 
	C56.246990,57.950310 56.168465,57.301136 56.069565,56.323387 
	C56.049191,55.994816 56.465965,55.902927 56.722191,56.244690 
	C57.611870,57.010098 58.245323,57.433750 58.878777,57.857399 
z"/>
<path fill="#CB8333" opacity="1.000000" stroke="none" 
	d="
M59.706116,72.049301 
	C59.768703,72.508812 59.597340,73.027580 59.277992,73.776497 
	C59.244061,73.373947 59.358109,72.741249 59.706116,72.049301 
z"/>
<path fill="#936128" opacity="1.000000" stroke="none" 
	d="
M58.062767,86.496628 
	C59.017040,86.332619 60.116833,86.341286 61.603401,86.501297 
	C61.191505,86.803879 60.392826,86.955116 59.284088,87.127716 
	C58.707603,87.007004 58.452351,86.847076 58.062767,86.496628 
z"/>
<path fill="#CB8333" opacity="1.000000" stroke="none" 
	d="
M56.922409,75.313049 
	C56.882065,75.876030 56.641373,76.695618 56.226589,77.786392 
	C56.275684,77.228279 56.498871,76.398964 56.922409,75.313049 
z"/>
<path fill="#742E08" opacity="1.000000" stroke="none" 
	d="
M41.666241,70.893814 
	C42.136864,70.768997 42.380585,70.818642 42.991154,70.941345 
	C42.963997,71.470161 42.569984,71.925919 42.039803,72.648254 
	C41.748863,72.299324 41.594101,71.683807 41.666241,70.893814 
z"/>
<path fill="#793C08" opacity="1.000000" stroke="none" 
	d="
M48.962265,70.487999 
	C49.189350,70.911789 49.122993,71.382088 49.056641,71.852394 
	C48.784573,71.784279 48.512501,71.716156 48.240433,71.648033 
	C48.383232,71.276863 48.526031,70.905693 48.962265,70.487999 
z"/>
<path fill="#CB8333" opacity="1.000000" stroke="none" 
	d="
M55.897278,79.123535 
	C55.994274,79.378563 55.765293,79.586601 55.181160,79.685188 
	C55.165066,79.499382 55.413498,79.332977 55.897278,79.123535 
z"/>
<path fill="#0B0602" opacity="1.000000" stroke="none" 
	d="
M58.825020,27.434795 
	C63.781872,27.737593 68.539711,28.251425 73.247009,29.059664 
	C74.254303,29.232618 75.078308,30.473019 75.641098,31.617563 
	C74.167671,32.660431 73.039894,33.307400 71.912117,33.954369 
	C71.912117,33.954369 71.975105,33.966381 71.582642,33.988773 
	C66.820915,34.365566 62.451641,34.719963 58.082367,35.074364 
	C55.697517,33.739918 53.312672,32.405468 50.927822,31.071020 
	C50.958149,30.564264 50.988476,30.057508 51.018803,29.550753 
	C53.548515,28.950855 56.078228,28.350956 58.825020,27.434795 
z"/>
<path fill="#0A0702" opacity="1.000000" stroke="none" 
	d="
M34.038605,65.363602 
	C33.951550,61.265369 33.885258,57.509045 33.723984,53.305809 
	C33.677162,52.409901 33.725319,51.960899 34.033978,50.995728 
	C34.349476,49.950123 34.404472,49.420692 34.459469,48.891262 
	C34.530819,48.704784 34.602165,48.518307 34.963108,47.982620 
	C35.465282,47.378632 35.443516,47.145744 35.187401,46.934734 
	C35.966862,44.099354 37.253712,45.152092 38.876450,47.004517 
	C39.505688,47.927280 39.836555,48.337788 40.167423,48.748291 
	C40.269852,48.935848 40.372284,49.123402 40.550068,49.779182 
	C40.657501,50.551670 40.824642,50.727798 41.126850,50.775787 
	C41.126850,50.775787 41.144047,50.872765 41.166592,51.288116 
	C41.593895,53.166740 41.998657,54.630013 42.403419,56.093285 
	C42.383217,56.794899 42.363018,57.496510 42.206596,58.821377 
	C42.065601,59.642956 42.060822,59.841286 42.056038,60.039619 
	C41.345387,61.687859 40.634731,63.336098 39.883308,65.319572 
	C38.826801,66.639458 37.811058,67.624107 36.358620,69.032074 
	C35.571644,67.893471 34.815506,66.799492 34.038605,65.363602 
z"/>
<path fill="#CB8C3C" opacity="1.000000" stroke="none" 
	d="
M58.130154,35.272358 
	C62.451641,34.719963 66.820915,34.365566 71.575928,33.957420 
	C71.066254,35.203033 70.170837,36.502388 68.972214,37.982491 
	C65.392700,38.180084 62.116402,38.196926 58.479881,38.104836 
	C58.119656,37.995899 58.014893,37.513870 57.976887,37.270485 
	C58.018566,36.508183 58.098251,35.989269 58.130154,35.272358 
z"/>
<path fill="#835924" opacity="1.000000" stroke="none" 
	d="
M42.509178,55.809166 
	C41.998657,54.630013 41.593895,53.166740 41.203758,51.320423 
	C41.683899,52.466602 42.149422,53.995823 42.509178,55.809166 
z"/>
<path fill="#835924" opacity="1.000000" stroke="none" 
	d="
M40.151791,48.470543 
	C39.836555,48.337788 39.505688,47.927280 39.146683,47.231998 
	C39.457748,47.362411 39.796951,47.777607 40.151791,48.470543 
z"/>
<path fill="#835924" opacity="1.000000" stroke="none" 
	d="
M34.263271,49.080414 
	C34.404472,49.420692 34.349476,49.950123 34.085148,50.660782 
	C33.939568,50.317863 34.003323,49.793716 34.263271,49.080414 
z"/>
<path fill="#835924" opacity="1.000000" stroke="none" 
	d="
M42.195183,59.942123 
	C42.060822,59.841286 42.065601,59.642956 42.189430,59.171955 
	C42.317101,59.214397 42.325714,59.529514 42.195183,59.942123 
z"/>
<path fill="#835924" opacity="1.000000" stroke="none" 
	d="
M35.043434,47.026676 
	C35.443516,47.145744 35.465282,47.378632 35.068787,47.702393 
	C34.754547,47.550766 34.759418,47.333179 35.043434,47.026676 
z"/>
<path fill="#835924" opacity="1.000000" stroke="none" 
	d="
M41.156876,50.599480 
	C40.824642,50.727798 40.657501,50.551670 40.694969,50.065117 
	C41.013294,49.978539 41.154091,50.158657 41.156876,50.599480 
z"/>
<path fill="#2B1603" opacity="1.000000" stroke="none" 
	d="
M44.701309,52.342140 
	C44.660591,52.334194 44.892982,52.168579 44.892982,52.168579 
	C44.892982,52.168579 44.700043,52.245148 44.698036,52.332352 
	C44.696030,52.419556 44.742023,52.350082 44.701309,52.342140 
z"/>
<path fill="#DB8825" opacity="1.000000" stroke="none" 
	d="
M48.492275,37.499561 
	C48.511276,37.493221 48.473274,37.505901 48.492275,37.499561 
z"/>
<path fill="#100904" opacity="1.000000" stroke="none" 
	d="
M85.148277,64.640160 
	C85.148277,64.640160 85.205246,64.314445 85.149597,63.820679 
	C84.750656,63.163815 84.407356,63.000717 84.064064,62.837624 
	C84.266479,62.779495 84.468887,62.721367 84.439194,61.996704 
	C84.090561,58.213024 83.974022,55.095879 84.052002,51.695404 
	C85.256012,49.652264 86.265518,47.892452 87.529648,46.053833 
	C88.186661,45.626541 88.589043,45.278049 88.991432,44.929558 
	C90.313477,47.969036 92.775139,51.036667 92.700920,54.041656 
	C92.577530,59.037426 90.826500,63.992992 89.173225,68.854164 
	C88.132629,68.399216 87.679771,68.055595 87.226906,67.711975 
	C87.226906,67.711975 87.228531,67.799149 87.236465,67.462799 
	C86.545700,66.297684 85.846985,65.468918 85.148277,64.640160 
z"/>
<path fill="#BE783A" opacity="1.000000" stroke="none" 
	d="
M88.979889,44.565502 
	C88.589043,45.278049 88.186661,45.626541 87.181381,45.970604 
	C84.719917,45.974716 82.861328,45.983250 80.959297,45.838673 
	C80.639206,45.100807 80.362556,44.516060 80.079041,43.654251 
	C80.059357,43.007893 80.046547,42.638592 80.040100,41.934555 
	C79.783546,41.291687 79.520645,40.983559 79.340477,40.427864 
	C79.258514,40.124104 79.093826,40.067913 78.919327,39.986153 
	C78.909515,39.960587 78.963173,39.949627 79.117004,40.369453 
	C79.506989,40.025265 79.743149,39.261250 79.965103,38.515575 
	C79.950897,38.533916 79.906479,38.524582 80.228241,38.320251 
	C81.970413,37.666451 83.390823,37.216976 84.811241,36.767502 
	C86.196945,39.245483 87.582649,41.723465 88.979889,44.565502 
z"/>
<path fill="#A56E37" opacity="1.000000" stroke="none" 
	d="
M82.203659,78.721024 
	C80.168411,76.614365 78.333046,74.294136 76.449043,71.912422 
	C79.654030,71.912422 82.083878,71.912422 84.773193,71.966057 
	C85.606560,72.798843 86.180466,73.577995 86.369942,73.835243 
	C84.924744,75.537613 83.664146,77.022530 82.203659,78.721024 
z"/>
<path fill="#8C5A28" opacity="1.000000" stroke="none" 
	d="
M84.733421,36.562943 
	C83.390823,37.216976 81.970413,37.666451 79.974075,38.161247 
	C78.934654,37.570194 78.471153,36.933823 78.090706,36.004070 
	C78.492043,35.191963 78.810326,34.673237 79.407219,34.110779 
	C79.872162,34.041939 80.058487,34.016823 80.244820,33.991707 
	C81.715080,34.780598 83.185341,35.569489 84.733421,36.562943 
z"/>
<path fill="#BE783A" opacity="1.000000" stroke="none" 
	d="
M87.147873,68.059753 
	C87.679771,68.055595 88.132629,68.399216 88.797272,68.940109 
	C87.926224,70.083832 86.843391,71.030266 85.410278,72.009521 
	C85.729622,70.830742 86.399231,69.619133 87.147873,68.059753 
z"/>
<path fill="#CB8C3C" opacity="1.000000" stroke="none" 
	d="
M72.292191,33.963600 
	C73.039894,33.307400 74.167671,32.660431 75.641884,32.002724 
	C76.217781,32.027893 76.447250,32.063805 76.857681,32.410992 
	C76.595306,33.136147 76.151970,33.550022 75.708633,33.963898 
	C74.696510,33.966877 73.684387,33.969856 72.292191,33.963600 
z"/>
<path fill="#322300" opacity="1.000000" stroke="none" 
	d="
M75.556274,34.291611 
	C76.151970,33.550022 76.595306,33.136147 77.201782,32.465519 
	C77.364914,32.208767 77.709328,32.248211 77.966774,32.529160 
	C78.525681,33.258244 78.827141,33.706379 79.128601,34.154510 
	C78.810326,34.673237 78.492043,35.191963 77.641510,36.300186 
	C76.817627,37.098598 76.525993,37.307514 75.943497,37.193947 
	C75.453041,36.331547 75.253464,35.791626 75.053879,35.251705 
	C75.170555,35.040909 75.287239,34.830116 75.556274,34.291611 
z"/>
<path fill="#936128" opacity="1.000000" stroke="none" 
	d="
M70.285568,86.055511 
	C70.817596,85.549301 71.602409,85.250122 72.703506,85.005417 
	C73.024979,85.494392 73.030167,85.928886 73.029495,86.689323 
	C72.195206,86.764351 71.366783,86.513443 70.285568,86.055511 
z"/>
<path fill="#0A0A00" opacity="1.000000" stroke="none" 
	d="
M79.407211,34.110783 
	C78.827141,33.706379 78.525681,33.258244 78.138794,32.550499 
	C78.810493,32.611103 79.567635,32.931328 80.284790,33.621628 
	C80.058487,34.016823 79.872162,34.041939 79.407211,34.110783 
z"/>
<path fill="#936128" opacity="1.000000" stroke="none" 
	d="
M66.181458,86.693062 
	C66.437874,86.455032 66.892982,86.333534 67.700737,86.268448 
	C67.495644,86.486435 66.937897,86.648010 66.181458,86.693062 
z"/>
<path fill="#BE783A" opacity="1.000000" stroke="none" 
	d="
M83.857483,51.978733 
	C83.974022,55.095879 84.090561,58.213024 84.353470,61.692673 
	C83.071381,62.437778 81.642914,62.820377 80.068573,62.804413 
	C79.922684,62.405846 79.970535,62.063446 79.970535,62.063446 
	C79.976486,61.894100 79.982437,61.724751 80.360077,61.095062 
	C80.785172,57.772434 80.838570,54.910145 81.262604,52.039249 
	C82.374649,52.013340 83.116058,51.996037 83.857483,51.978733 
z"/>
<path fill="#D38A33" opacity="1.000000" stroke="none" 
	d="
M62.453171,55.151623 
	C62.292114,54.902931 62.489120,54.622742 62.863258,54.155510 
	C64.402588,53.420456 65.773491,52.427792 67.124435,52.454235 
	C68.380325,52.478817 69.614952,53.589813 70.869804,54.542343 
	C68.190857,54.948166 65.501045,55.034145 62.453171,55.151623 
z"/>
<path fill="#B6743D" opacity="1.000000" stroke="none" 
	d="
M78.667198,58.997845 
	C78.036987,58.996803 77.406769,58.995762 76.375626,58.768379 
	C75.890884,58.224216 75.720490,57.962830 75.465012,57.499634 
	C75.469551,56.898117 75.472580,56.554844 75.622269,55.962936 
	C75.740479,54.952114 75.712036,54.189922 76.005455,53.238762 
	C77.261765,52.744396 78.196220,52.438999 79.113403,52.563404 
	C78.953156,54.994751 78.810181,56.996296 78.667198,58.997845 
z"/>
<path fill="#140E02" opacity="1.000000" stroke="none" 
	d="
M78.840668,59.251434 
	C78.810181,56.996296 78.953156,54.994751 79.406853,52.529884 
	C80.109039,52.060329 80.500511,52.054092 80.891975,52.047859 
	C80.838570,54.910145 80.785172,57.772434 80.362503,60.840893 
	C79.666870,60.533054 79.340500,60.019043 78.840668,59.251434 
z"/>
<path fill="#603611" opacity="1.000000" stroke="none" 
	d="
M75.683594,53.427734 
	C75.712036,54.189922 75.740479,54.952114 75.344955,55.902740 
	C74.550926,57.103245 74.180855,58.115303 73.810776,59.127361 
	C73.539902,57.704716 73.269035,56.282074 73.096786,54.488174 
	C73.774185,53.957268 74.352966,53.797615 75.242050,53.532520 
	C75.552345,53.427082 75.683601,53.427734 75.683594,53.427734 
z"/>
<path fill="#BE783A" opacity="1.000000" stroke="none" 
	d="
M85.040375,64.941666 
	C85.846985,65.468918 86.545700,66.297684 87.280014,67.460892 
	C86.521248,66.944611 85.726860,66.093887 85.040375,64.941666 
z"/>
<path fill="#C88433" opacity="1.000000" stroke="none" 
	d="
M62.023087,58.584534 
	C61.859482,58.942356 61.687611,58.932270 61.176414,58.664585 
	C60.563793,57.985897 60.290508,57.564808 60.020164,56.855881 
	C60.025143,56.376144 60.027172,56.184250 60.029205,55.992355 
	C60.460369,55.993675 60.891533,55.994991 61.644825,55.998878 
	C61.982906,56.739841 61.998859,57.478237 62.023087,58.584534 
z"/>
<path fill="#000000" opacity="1.000000" stroke="none" 
	d="
M74.098557,59.187065 
	C74.180855,58.115303 74.550926,57.103245 75.198303,56.151375 
	C75.472580,56.554844 75.469551,56.898117 75.312775,57.861275 
	C75.097389,58.735046 75.035759,58.988930 74.974129,59.242817 
	C74.778206,59.244133 74.582275,59.245453 74.098557,59.187065 
z"/>
<path fill="#603611" opacity="1.000000" stroke="none" 
	d="
M75.109406,59.362083 
	C75.035759,58.988930 75.097389,58.735046 75.311264,58.119518 
	C75.720490,57.962830 75.890884,58.224216 76.059586,58.762978 
	C75.844543,59.149723 75.544609,59.315533 75.109406,59.362083 
z"/>
<path fill="#703D10" opacity="1.000000" stroke="none" 
	d="
M62.801933,62.970757 
	C62.306297,62.509911 62.193863,62.063614 62.258331,61.303642 
	C62.685204,61.655079 62.935165,62.320190 62.801933,62.970757 
z"/>
<path fill="#BE783A" opacity="1.000000" stroke="none" 
	d="
M84.248413,63.018097 
	C84.407356,63.000717 84.750656,63.163815 85.078506,63.671417 
	C84.852959,63.743469 84.642860,63.471020 84.248413,63.018097 
z"/>
<path fill="#92572A" opacity="1.000000" stroke="none" 
	d="
M79.913010,62.140564 
	C79.970535,62.063446 79.922684,62.405846 79.897049,62.574982 
	C79.765106,62.569019 79.759804,62.393539 79.913010,62.140564 
z"/>
<path fill="#CA8038" opacity="1.000000" stroke="none" 
	d="
M76.005463,53.238762 
	C75.683601,53.427734 75.552345,53.427082 75.503891,53.383678 
	C74.479248,50.344780 72.545631,47.328476 76.164047,44.142433 
	C77.559204,43.367287 78.439537,42.871338 79.497452,42.344055 
	C79.675049,42.312725 80.033745,42.269295 80.033745,42.269295 
	C80.046547,42.638592 80.059357,43.007893 79.846970,43.889465 
	C78.570709,45.695515 77.519638,46.989288 76.468567,48.283062 
	C76.965172,48.745449 77.461784,49.207832 77.958397,49.670219 
	C78.973183,48.444077 79.987961,47.217930 81.002747,45.991787 
	C82.861328,45.983250 84.719917,45.974716 86.926758,46.049408 
	C86.265518,47.892452 85.256012,49.652264 84.051994,51.695404 
	C83.116058,51.996037 82.374649,52.013340 81.262604,52.039249 
	C80.500511,52.054092 80.109039,52.060329 79.424118,52.100082 
	C78.196220,52.438999 77.261765,52.744396 76.005463,53.238762 
z"/>
<path fill="#CF803C" opacity="1.000000" stroke="none" 
	d="
M76.234360,37.516434 
	C76.525993,37.307514 76.817627,37.098598 77.558456,36.593567 
	C78.471153,36.933823 78.934654,37.570194 79.652313,38.365574 
	C79.906479,38.524582 79.950897,38.533916 79.687195,38.666245 
	C79.270058,39.182259 79.116615,39.565941 78.963173,39.949627 
	C78.963173,39.949627 78.909515,39.960587 78.609772,39.967789 
	C77.788742,40.311237 77.267464,40.647484 76.746185,40.983734 
	C76.355347,40.982239 75.964516,40.980743 75.273819,40.616882 
	C74.954193,39.770676 74.934433,39.286839 75.020058,38.607224 
	C75.125443,38.411442 75.416855,38.076786 75.528366,38.072182 
	C75.980171,38.018024 76.178329,37.834312 76.234360,37.516434 
z"/>
<path fill="#E09237" opacity="1.000000" stroke="none" 
	d="
M74.914673,38.803001 
	C74.934433,39.286839 74.954193,39.770676 74.980682,40.617287 
	C73.906532,40.768612 72.825638,40.557156 72.105049,40.088791 
	C72.789398,39.676060 72.966270,39.418972 72.995964,39.060612 
	C72.995964,39.060612 73.000916,39.001526 73.324333,39.043606 
	C74.070061,38.991459 74.492363,38.897228 74.914673,38.803001 
z"/>
<path fill="#7D4D1C" opacity="1.000000" stroke="none" 
	d="
M76.678116,41.282349 
	C77.267464,40.647484 77.788742,40.311237 78.619576,39.993355 
	C79.093826,40.067913 79.258514,40.124104 79.174057,40.629227 
	C78.813255,41.211704 78.701622,41.345249 78.569366,41.508850 
	C78.548752,41.538898 78.586288,41.534214 78.769958,41.744270 
	C79.075699,42.094681 79.197784,42.235031 79.319862,42.375389 
	C78.439537,42.871338 77.559204,43.367287 76.380219,43.916199 
	C76.257729,43.173100 76.433891,42.377033 76.678116,41.282349 
z"/>
<path fill="#8C5A28" opacity="1.000000" stroke="none" 
	d="
M75.943497,37.193951 
	C76.178329,37.834312 75.980171,38.018024 75.160835,37.880196 
	C74.409317,37.647720 74.136841,37.602631 73.864365,37.557541 
	C74.183029,36.912613 74.501701,36.267685 74.937126,35.437233 
	C75.253464,35.791626 75.453041,36.331547 75.943497,37.193951 
z"/>
<path fill="#2A1504" opacity="1.000000" stroke="none" 
	d="
M70.815773,45.365517 
	C70.678726,44.898880 70.789635,44.332775 70.968346,43.788944 
	C70.982796,43.744991 71.462364,43.853882 71.725792,43.891747 
	C71.510933,44.351761 71.296074,44.811779 70.815773,45.365517 
z"/>
<path fill="#683C15" opacity="1.000000" stroke="none" 
	d="
M73.584007,37.710224 
	C74.136841,37.602631 74.409317,37.647720 75.049332,37.884800 
	C75.416855,38.076786 75.125443,38.411442 75.020058,38.607224 
	C74.492363,38.897228 74.070061,38.991459 73.323044,39.074249 
	C73.100113,38.662849 73.201881,38.262878 73.584007,37.710224 
z"/>
<path fill="#9E5D19" opacity="1.000000" stroke="none" 
	d="
M72.779198,39.153053 
	C72.966270,39.418972 72.789398,39.676060 72.237259,39.916588 
	C72.135178,39.706589 72.319595,39.454659 72.779198,39.153053 
z"/>
<path fill="#D38A33" opacity="1.000000" stroke="none" 
	d="
M53.806587,41.713989 
	C53.564018,41.278236 53.496372,40.850807 53.428730,40.423378 
	C53.709751,40.439728 53.990768,40.456078 54.271790,40.472424 
	C54.175034,40.889053 54.078274,41.305683 53.806587,41.713989 
z"/>
<path fill="#D38A33" opacity="1.000000" stroke="none" 
	d="
M57.289078,39.012482 
	C57.584240,39.204906 57.955009,39.703480 58.403198,40.509521 
	C58.108639,40.317535 57.736664,39.818085 57.289078,39.012482 
z"/>
<path fill="#150B00" opacity="1.000000" stroke="none" 
	d="
M58.989471,57.852726 
	C58.245323,57.433750 57.611870,57.010098 56.935204,56.257439 
	C57.403595,55.873749 57.915203,55.819073 58.826965,56.136574 
	C59.308678,56.681183 59.390244,56.853622 59.344452,57.273220 
	C59.185745,57.703072 59.154396,57.885765 59.123047,58.068455 
	C59.123047,58.068455 59.100166,57.848053 58.989471,57.852726 
z"/>
<path fill="#C87D27" opacity="1.000000" stroke="none" 
	d="
M59.471809,57.026058 
	C59.390244,56.853622 59.308678,56.681183 59.208206,56.223381 
	C59.189301,55.938015 59.609821,55.945126 59.819511,55.968742 
	C60.027172,56.184250 60.025143,56.376144 59.881886,56.835327 
	C59.740658,57.102612 59.471809,57.026058 59.471809,57.026058 
z"/>
<path fill="#DB8825" opacity="1.000000" stroke="none" 
	d="
M59.344452,57.273220 
	C59.471809,57.026058 59.740658,57.102612 59.878937,57.123169 
	C60.290508,57.564808 60.563793,57.985897 60.918861,58.645599 
	C61.000641,58.884212 60.508263,58.938538 60.261711,58.960037 
	C59.851646,58.746483 59.667950,58.528431 59.293556,58.197922 
	C59.154396,57.885765 59.185745,57.703072 59.344452,57.273220 
z"/>
<path fill="#C57A2F" opacity="1.000000" stroke="none" 
	d="
M80.959297,45.838673 
	C79.987961,47.217930 78.973183,48.444077 77.958397,49.670219 
	C77.461784,49.207832 76.965172,48.745449 76.468567,48.283062 
	C77.519638,46.989288 78.570709,45.695515 79.853844,44.166527 
	C80.362556,44.516060 80.639206,45.100807 80.959297,45.838673 
z"/>
<path fill="#341D08" opacity="1.000000" stroke="none" 
	d="
M79.117004,40.369453 
	C79.116615,39.565941 79.270058,39.182259 79.701401,38.647903 
	C79.743149,39.261250 79.506989,40.025265 79.117004,40.369453 
z"/>
<path fill="#7D4D1C" opacity="1.000000" stroke="none" 
	d="
M80.040100,41.934555 
	C80.033745,42.269295 79.675049,42.312725 79.497452,42.344055 
	C79.197784,42.235031 79.075699,42.094681 78.753662,41.729965 
	C78.553711,41.505608 78.589981,41.478798 78.589981,41.478798 
	C78.701622,41.345249 78.813255,41.211704 79.091324,40.876793 
	C79.520645,40.983559 79.783546,41.291687 80.040100,41.934555 
z"/>
<path fill="#CF803C" opacity="1.000000" stroke="none" 
	d="
M78.569366,41.508850 
	C78.589981,41.478798 78.553711,41.505608 78.570000,41.519913 
	C78.586288,41.534214 78.548752,41.538898 78.569366,41.508850 
z"/>
</svg>