<svg version="1.1" id="Layer_1" xmlns="http://www.w3.org/2000/svg" xmlns:xlink="http://www.w3.org/1999/xlink" x="0px" y="0px"
	 width="100%" viewBox="0 0 500 500" enable-background="new 0 0 500 500" xml:space="preserve">
<path fill="#000000" opacity="1.000000" stroke="none" 
	d="
M501.000000,190.000000 
	C501.000000,292.666656 500.977997,394.833313 501.095520,496.999817 
	C501.099457,500.423767 500.423828,501.096954 497.000000,501.094696 
	C333.000092,500.986237 169.000137,500.986206 5.000255,501.094635 
	C1.576956,501.096893 0.903020,500.424194 0.905285,497.000122 
	C1.013782,333.000214 1.013754,169.000259 0.905355,5.000374 
	C0.903093,1.577354 1.575406,0.903005 4.999749,0.905270 
	C168.999634,1.013778 332.999603,1.013757 496.999512,0.905371 
	C500.422272,0.903109 501.104279,1.574072 501.096863,4.999777 
	C500.963623,66.499634 501.000000,127.999855 501.000000,190.000000 
z"/>
<path fill="#F7941D" opacity="1.000000" stroke="none" 
	d="
M9.999274,255.324677 
	C9.723424,245.568695 9.979902,236.329865 10.853920,227.040680 
	C11.988960,214.977310 13.945333,203.123138 16.995718,191.426926 
	C22.384909,170.762939 30.206345,151.158646 40.681709,132.447281 
	C53.328331,109.857552 69.180206,89.889893 88.156136,72.560692 
	C107.253723,55.120388 128.697418,41.063160 152.563156,30.565277 
	C170.372940,22.731243 188.754791,17.033648 207.689270,13.318417 
	C224.050522,10.108090 240.761215,9.682441 257.480957,9.931192 
	C286.720154,10.366204 314.670532,16.556429 341.774445,27.296267 
	C362.797668,35.626644 382.240570,46.724609 399.960846,60.646832 
	C411.365570,69.607140 421.653717,79.822052 431.428589,90.665047 
	C447.117310,108.068123 459.822205,127.324310 469.657379,148.426483 
	C479.004333,168.481110 485.860687,189.386795 489.127441,211.432159 
	C490.844879,223.021851 491.739777,234.582336 492.097656,246.283646 
	C493.191711,282.054626 486.071533,316.078552 471.713165,348.748657 
	C461.793579,371.319122 448.584229,391.654449 432.354065,410.243713 
	C410.089630,435.744324 383.725769,455.640442 353.148071,469.909729 
	C333.233917,479.202789 312.404938,485.579132 290.608521,489.170227 
	C271.689331,492.287292 252.687866,492.809967 233.755539,491.756317 
	C213.768448,490.644012 194.146835,486.718079 175.006653,480.187592 
	C148.884521,471.274872 124.949837,458.733185 103.130127,441.791779 
	C85.695503,428.255096 70.781197,412.530640 57.359840,395.053864 
	C36.452736,367.829437 23.157804,337.152374 15.240691,304.120911 
	C11.464128,288.364502 9.367911,272.157684 9.999274,255.324677 
z"/>
<path fill="#D37728" opacity="1.000000" stroke="none" 
	d="
M450.733795,346.556458 
	C448.631958,353.518707 445.486053,359.669312 440.318848,364.943451 
	C436.877289,366.549774 435.391785,363.992889 433.697540,362.356995 
	C424.482117,353.458862 415.771240,344.038086 405.546600,336.205322 
	C398.272186,330.632599 390.795166,325.367371 383.151001,320.329193 
	C381.642059,319.334686 379.945465,318.594360 379.267273,316.724609 
	C385.626007,329.405029 392.684998,341.650024 401.443939,352.826843 
	C408.531830,361.871399 416.496307,370.086487 425.280670,377.508148 
	C426.755127,378.753876 428.683289,379.840698 428.141266,382.647400 
	C425.587494,390.136047 420.231110,395.017761 414.525299,399.960632 
	C410.823059,400.407166 409.185577,397.942108 407.354523,395.811584 
	C391.265686,377.091156 372.169800,362.090271 350.708527,350.017578 
	C350.317169,349.797394 349.881104,349.479034 349.228363,349.853210 
	C355.131470,361.426605 362.719513,371.884186 370.806610,381.980713 
	C378.826141,391.992859 388.211060,400.700867 397.698883,409.285278 
	C398.980164,410.444550 400.107330,411.582794 400.013367,413.806458 
	C395.899719,420.230652 390.041565,424.279816 383.542480,428.012878 
	C380.269897,428.420227 378.728455,426.349976 376.931854,424.613068 
	C366.555267,414.581207 357.144226,403.491425 344.839081,395.574036 
	C336.493866,390.204468 328.171509,384.820007 318.133820,380.468750 
	C325.350647,392.508789 333.447388,402.610107 341.451599,412.804688 
	C347.744751,420.819946 356.054565,426.826294 362.445343,434.703461 
	C363.683868,436.230011 365.526062,437.311676 365.944489,439.814056 
	C360.520477,444.838440 354.236450,448.131134 347.242554,450.877686 
	C342.804413,449.690796 339.321167,447.412689 336.585541,444.233215 
	C327.384247,433.539276 315.807922,426.165680 303.240936,420.214752 
	C285.017883,411.585480 265.775909,407.427551 245.624786,408.427002 
	C224.812927,409.459229 205.433029,415.514221 187.471252,426.164490 
	C184.756454,427.774231 182.375000,430.720306 178.271027,429.346191 
	C180.829346,422.554504 186.232635,417.926575 190.366821,412.383423 
	C194.820847,406.411438 198.273743,399.712402 203.786041,394.135223 
	C208.364014,388.385986 214.893127,387.976593 221.000870,386.704041 
	C244.197708,381.871185 267.243103,382.670288 290.127869,388.741028 
	C291.073853,388.991974 292.033203,389.372223 293.802551,388.706116 
	C290.361359,382.543732 288.446777,375.503235 283.405396,370.546875 
	C280.172607,367.368591 274.966858,367.933990 270.544342,367.427002 
	C255.282623,365.677399 240.044525,365.765320 224.841110,368.252502 
	C222.825882,368.582153 220.551788,369.472565 218.363953,367.381592 
	C220.898254,359.725281 223.562073,352.265198 227.799011,345.166199 
	C230.846237,341.941071 234.654236,341.839783 238.234131,341.762451 
	C247.701233,341.558075 257.178558,341.336975 266.645294,341.919342 
	C271.209290,342.200104 271.987854,341.243652 270.810120,336.781586 
	C267.595245,324.601318 267.316559,324.392456 254.512604,324.375549 
	C250.024628,324.369629 245.534821,324.462128 241.049454,324.308441 
	C239.098099,324.241577 236.996979,324.499664 235.255554,322.431885 
	C235.520096,315.320190 237.201935,308.821045 239.813446,302.220245 
	C241.392181,300.182404 243.252716,299.740936 245.337784,299.690979 
	C248.492188,299.615448 251.647339,299.687256 254.800171,299.601227 
	C260.033661,299.458405 260.953644,298.432404 260.551239,293.363037 
	C260.458862,292.198853 260.171265,291.072296 259.971954,289.928467 
	C258.710327,282.689331 258.531036,282.598907 251.007843,282.333893 
	C248.442490,282.243469 245.617081,282.982727 243.301605,280.366425 
	C242.315308,273.546509 242.877838,267.104950 243.901367,260.281952 
	C245.936249,257.477325 248.661224,257.773804 251.255981,257.608429 
	C256.494781,257.274689 257.293488,256.355011 257.629791,251.028687 
	C257.810028,248.173599 256.925934,245.049423 259.675903,242.371307 
	C260.107056,235.655960 261.544159,229.296143 260.991394,222.358734 
	C259.172241,220.369034 259.477051,218.283142 259.689270,216.366211 
	C260.280945,211.020828 260.091125,205.473480 263.579803,200.392578 
	C266.916565,193.964935 267.549957,187.228989 268.978516,180.286469 
	C268.299469,178.898895 267.692780,177.805786 267.974213,176.645111 
	C269.704285,169.510071 270.460541,161.958328 276.612183,156.299805 
	C279.921967,149.282410 282.879120,142.457947 285.901855,135.273651 
	C284.758545,133.736893 284.410797,132.208771 285.166504,130.833710 
	C289.406525,123.118729 292.036194,114.360481 299.621613,108.341461 
	C305.156281,103.806885 307.612915,97.427345 311.721100,92.271744 
	C316.766144,85.940407 321.504120,79.365669 327.022003,73.418320 
	C328.055511,72.304405 328.935516,71.129128 328.976685,69.152527 
	C328.777527,68.366150 328.718719,67.932907 328.855408,67.155182 
	C329.200165,66.187103 329.592468,65.632721 330.289124,64.878456 
	C334.005188,61.387638 337.330048,57.986996 340.658722,54.592056 
	C342.197144,53.023018 343.798340,51.702404 346.497803,51.904232 
	C354.020416,52.834385 359.612976,56.755795 364.945740,61.680855 
	C366.477386,64.852745 364.222382,66.280739 362.701385,67.920921 
	C357.298615,73.747101 351.117859,78.766327 345.842316,84.765823 
	C336.728302,95.130577 328.368469,106.030121 320.937714,117.634819 
	C319.594116,119.733101 317.771088,121.462563 316.605896,124.056290 
	C316.503815,124.639595 316.469635,124.875053 316.371277,125.465195 
	C316.071625,126.514000 315.680176,127.116806 314.971680,127.933792 
	C309.319580,135.290466 305.806396,143.409302 302.174469,151.842682 
	C299.215607,160.227417 296.157166,168.201050 293.154388,176.597443 
	C290.648956,183.540543 289.277863,190.414230 287.258057,197.509735 
	C286.532562,205.148087 285.060272,212.260361 283.738037,219.824707 
	C282.797516,226.708633 282.186493,233.194946 282.152771,240.125580 
	C282.850189,244.211426 281.312622,247.739868 281.434143,251.398743 
	C281.635193,257.452301 282.833893,258.968933 288.631134,260.110809 
	C299.395599,262.231110 299.653107,262.048431 299.613831,251.287399 
	C299.596863,246.645035 299.700165,242.011200 299.986145,236.980621 
	C300.860504,230.447632 300.959503,224.217636 302.200439,217.701508 
	C303.053314,209.323364 303.812866,201.353287 307.226135,193.534912 
	C308.762634,185.244125 311.624725,177.792206 314.628906,169.998413 
	C317.117126,160.287445 321.118469,151.640152 326.339355,143.142853 
	C326.456635,142.545456 326.496002,142.304916 326.598663,141.702545 
	C326.863892,140.623734 327.236755,139.998962 327.944092,139.164703 
	C333.926453,131.549820 338.052185,123.138275 343.566254,115.605835 
	C347.200806,110.640839 352.435974,107.008324 355.163574,100.961273 
	C355.401154,99.693428 355.830994,98.884193 356.580261,97.855034 
	C356.927887,97.408821 357.072540,97.235527 357.442200,96.810379 
	C357.820679,96.394112 357.974182,96.229713 358.362427,95.821838 
	C358.756378,95.417328 358.915558,95.256310 359.316772,94.855461 
	C364.848938,89.521347 370.002899,84.290215 375.414612,78.840401 
	C375.812653,78.446335 375.973846,78.292023 376.383789,77.916260 
	C376.805603,77.556702 376.978699,77.418594 377.428223,77.097527 
	C377.904327,76.821251 378.104004,76.727928 378.623901,76.557274 
	C379.382294,76.454033 379.810944,76.503334 380.506287,76.805244 
	C385.237152,74.270020 388.752075,75.990990 391.880707,79.362572 
	C394.411743,82.090172 398.273926,83.467606 399.888733,87.520676 
	C400.335205,89.905029 399.335144,91.307846 397.855591,92.588837 
	C378.945679,108.961433 362.825348,127.645348 350.769714,149.669113 
	C349.185181,152.563766 346.402740,154.754562 345.743317,158.569244 
	C340.643646,166.939529 337.791290,175.921448 334.405457,184.996857 
	C333.349182,191.244827 331.048889,196.815353 329.781555,202.678146 
	C329.049377,206.065536 329.826111,207.177338 333.197205,205.883911 
	C333.817810,205.645782 334.452759,205.418839 335.094757,205.263763 
	C343.945374,203.125671 350.430237,198.929550 351.828583,188.840668 
	C352.598999,183.282089 356.067749,178.471649 358.492340,173.028687 
	C365.645691,158.507996 373.237000,144.652908 384.331390,133.078720 
	C385.472046,131.888733 386.688171,130.739746 387.078674,128.651825 
	C392.398743,120.537605 399.794647,114.819038 406.325897,108.274910 
	C407.035980,107.563416 408.109283,107.436249 409.473267,107.804733 
	C412.848083,107.990387 414.107819,103.405815 417.105164,104.523949 
	C420.412048,105.757523 421.904083,109.432755 424.159485,112.035118 
	C425.858704,113.995773 427.970642,115.794136 428.871796,118.775635 
	C428.665771,122.955688 425.289978,124.349281 422.942200,126.438461 
	C421.116943,128.062653 419.151184,129.522110 417.384155,131.694000 
	C417.077850,132.166992 416.959198,132.358734 416.639984,132.822418 
	C416.290894,133.263168 416.142395,133.431976 415.761414,133.845001 
	C415.369965,134.248703 415.211029,134.408188 414.551147,135.025711 
	C413.868988,135.622070 413.687775,135.760406 413.223267,136.091660 
	C403.471069,145.285736 396.026825,155.856277 389.193054,166.902039 
	C385.423828,172.994461 382.555511,179.568298 378.965881,186.140625 
	C378.828094,186.703354 378.784149,186.931931 378.708984,187.512009 
	C378.626953,188.587799 378.409485,189.267197 377.948914,190.243118 
	C373.642548,197.626816 372.322510,205.693680 369.693054,213.664520 
	C369.692474,214.275635 369.703278,214.522034 369.757263,215.141357 
	C369.848755,216.025391 369.807220,216.529205 369.608093,217.406097 
	C367.124847,230.229095 366.111267,242.768631 366.286163,255.458359 
	C366.394440,263.314545 367.462708,271.017212 368.557404,278.746552 
	C369.086426,282.481689 370.903412,284.993835 374.463226,286.704254 
	C379.196259,288.978394 383.565674,292.007965 388.545380,293.759735 
	C389.759186,292.042328 388.892395,290.590179 388.521271,289.253204 
	C384.345123,274.208130 382.909332,258.845490 383.729797,243.327515 
	C384.458954,229.536423 386.165680,215.855286 392.357239,202.798859 
	C396.594177,189.980957 402.444214,178.403442 410.288086,167.846146 
	C412.232391,165.229248 415.105438,163.250992 415.933960,159.462708 
	C416.084106,158.628784 416.233032,158.170166 416.574066,157.402740 
	C416.845062,156.881317 416.969757,156.683899 417.309753,156.217621 
	C417.676361,155.780670 417.827728,155.612579 418.208435,155.199097 
	C418.592133,154.793152 418.746490,154.632599 419.380463,154.007156 
	C420.032288,153.398651 420.204468,153.255005 420.639893,152.901398 
	C424.644196,148.320663 428.798462,144.379791 433.488831,140.526810 
	C433.816437,140.089554 433.943573,139.913589 434.272644,139.487183 
	C434.626007,139.088669 434.777435,138.940598 435.176880,138.600937 
	C435.601196,138.302826 435.777527,138.196289 436.524078,137.889771 
	C437.292267,137.678238 437.490204,137.666672 438.257812,137.801758 
	C440.955627,138.014542 442.789734,138.704346 443.742432,140.734055 
	C445.924683,145.383163 449.174866,149.477402 450.871246,154.763199 
	C450.204590,159.193848 447.182709,161.681534 444.463043,164.325760 
	C427.376923,180.937912 416.114075,200.933701 411.334045,224.173187 
	C402.531311,266.970184 412.924072,304.586548 443.214600,336.438202 
	C446.024811,339.393280 449.829071,341.674835 450.733795,346.556458 
z"/>
<path fill="#000000" opacity="1.000000" stroke="none" 
	d="
M31.993511,218.870026 
	C33.661591,203.643829 37.675377,189.464340 42.803051,175.561386 
	C45.329281,168.711853 47.977848,161.917511 51.295681,155.403137 
	C110.518097,200.292633 116.537521,294.991089 51.344582,346.852417 
	C43.212288,330.482697 37.623184,313.342072 34.002872,295.526611 
	C31.382946,282.634033 30.176662,269.645294 29.761292,256.458099 
	C29.367022,243.940857 30.086020,231.631531 31.993511,218.870026 
z"/>
<path fill="#000000" opacity="1.000000" stroke="none" 
	d="
M450.968414,346.516357 
	C429.309235,328.853973 415.194153,306.188843 408.999298,278.692474 
	C402.164612,248.356155 406.347504,219.439835 420.575714,191.913605 
	C427.940918,177.664642 438.789978,166.194366 450.608032,155.197647 
	C457.754303,170.871460 463.877319,186.841049 467.397583,203.730164 
	C469.767578,215.100830 471.516235,226.514694 472.031036,238.129730 
	C472.408447,246.644409 472.539062,255.118256 472.106598,263.659302 
	C470.952942,286.444702 466.127563,308.379272 458.028717,329.633179 
	C455.900024,335.219421 453.357910,340.648132 450.968414,346.516357 
z"/>
<path fill="#000000" opacity="1.000000" stroke="none" 
	d="
M330.066467,67.810654 
	C329.468781,67.954506 329.226746,68.086945 329.015350,68.568954 
	C312.254456,81.603989 293.704224,90.276726 272.872955,94.038223 
	C247.312012,98.653763 222.870621,95.455269 199.200684,84.763557 
	C190.997055,81.057976 182.807434,77.043587 176.241440,71.236412 
	C169.752762,65.497589 164.033417,58.684765 157.928040,52.388905 
	C155.439651,49.822872 158.665939,49.679085 159.568573,49.228928 
	C171.359253,43.348690 183.856750,39.294250 196.574463,36.109215 
	C209.381744,32.901745 222.460297,31.181404 235.642258,29.869642 
	C264.361877,27.011700 292.018494,31.857460 319.280640,40.125149 
	C328.733887,42.991997 337.908508,46.696095 346.764404,51.626842 
	C341.959625,56.718464 337.084320,61.463688 332.091034,66.515640 
	C331.601501,67.433586 330.943176,67.487427 330.066467,67.810654 
z"/>
<path fill="#000000" opacity="1.000000" stroke="none" 
	d="
M177.926956,429.286987 
	C185.311310,424.821381 192.504211,420.390137 200.244980,416.912323 
	C212.089111,411.590942 224.423691,408.547546 237.320847,406.849548 
	C255.481918,404.458527 273.067078,406.745789 290.197906,412.244843 
	C304.508270,416.838531 317.849945,423.763702 329.251740,433.817322 
	C335.254272,439.110077 340.920502,444.784271 346.809937,450.609619 
	C336.239502,455.705048 325.459656,460.079559 314.245544,463.390717 
	C301.883270,467.040863 289.367584,469.616882 276.539917,471.108368 
	C262.097382,472.787659 247.614441,472.601715 233.251129,471.751099 
	C218.345551,470.868347 203.534958,468.213226 189.158279,463.662231 
	C179.723358,460.675537 170.390747,457.456329 161.244400,453.682037 
	C157.570572,452.165985 156.046066,450.962097 159.949341,447.317871 
	C165.372192,442.254791 171.235229,437.498474 175.666290,430.987091 
	C176.166580,430.700165 176.359573,430.580780 176.809875,430.238525 
	C177.404800,429.966888 177.666870,429.799713 177.926956,429.286987 
z"/>
<path fill="#000000" opacity="1.000000" stroke="none" 
	d="
M110.377289,299.119019 
	C114.739105,283.040680 118.290527,266.975708 117.946793,250.353134 
	C117.618851,234.494324 115.404663,218.888474 109.847717,203.005539 
	C116.393585,206.493729 122.393158,209.683121 128.382706,212.891235 
	C129.235840,213.348190 129.994965,214.226028 130.874878,214.347000 
	C135.827301,215.027878 137.433548,218.434296 137.858109,222.741913 
	C139.260666,236.972717 141.120224,251.116837 139.263947,265.555115 
	C138.475479,271.687866 137.311722,277.829071 136.958496,284.464050 
	C135.772156,287.135773 134.143677,288.976959 131.908234,290.148071 
	C126.527260,292.967163 121.042274,295.583374 115.798409,298.669617 
	C114.268799,299.569824 112.551414,300.397125 110.377289,299.119019 
z"/>
<path fill="#000000" opacity="1.000000" stroke="none" 
	d="
M299.500031,108.052444 
	C295.264526,116.775238 290.643097,125.480637 285.994568,134.549927 
	C271.133240,137.503082 256.185028,138.685242 241.145905,137.932526 
	C234.614380,137.605621 228.093903,136.715637 221.620956,135.734573 
	C219.132996,135.357513 217.558350,133.867691 216.258469,131.020004 
	C212.773819,123.386162 208.247894,116.227631 203.762589,108.213905 
	C235.878693,118.581223 267.544769,118.714989 299.500031,108.052444 
z"/>
<path fill="#000000" opacity="1.000000" stroke="none" 
	d="
M218.033325,367.478760 
	C232.817719,363.574097 247.841095,363.545532 262.831055,364.125092 
	C269.975037,364.401306 277.061646,366.054565 284.189270,366.966492 
	C285.401978,367.121674 285.824951,367.699280 286.288391,368.641327 
	C290.458099,377.117767 294.836487,385.485199 300.490906,394.557220 
	C267.948792,383.537048 236.362747,382.974792 204.431122,393.836121 
	C208.627762,385.561432 213.174622,377.158905 217.711426,368.750977 
	C217.859283,368.476959 217.904114,368.147339 218.033325,367.478760 
z"/>
<path fill="#000000" opacity="1.000000" stroke="none" 
	d="
M139.007568,124.009659 
	C147.288925,134.912537 154.464478,146.096527 160.384888,158.962967 
	C155.172470,157.810165 151.406570,155.100739 147.486176,152.813553 
	C137.064407,146.733337 126.379829,140.695862 117.970451,132.105179 
	C108.715706,122.650932 99.540611,113.142448 89.713875,104.285797 
	C87.606873,102.386795 88.274597,101.384308 89.835960,99.534286 
	C93.017433,95.764648 96.399452,92.324684 100.149391,89.081207 
	C102.871498,86.726738 104.177132,87.166672 105.988419,89.484184 
	C110.695076,95.506287 116.114578,100.878738 121.666954,106.082176 
	C127.671600,111.709442 134.097290,116.895348 139.007568,124.009659 
z"/>
<path fill="#000000" opacity="1.000000" stroke="none" 
	d="
M159.683456,342.741516 
	C156.197403,353.717316 149.921310,362.960358 143.415207,372.043274 
	C137.501160,380.299652 131.120865,388.063934 123.210670,394.681732 
	C116.915146,399.948730 111.665970,406.476013 106.029190,412.515594 
	C104.057404,414.628265 102.296227,414.848663 99.931404,413.030884 
	C95.438988,409.577759 91.987251,405.193939 88.431252,400.885315 
	C87.271461,399.480042 88.592270,398.747223 89.363358,398.047699 
	C92.281784,395.400269 95.419884,392.982910 98.222633,390.222443 
	C105.288467,383.263184 112.468208,376.402802 118.868889,368.368530 
	C128.615021,356.638519 141.521423,349.822968 154.289307,342.821228 
	C155.916763,341.928772 157.640625,341.321198 159.683456,342.741516 
z"/>
<path fill="#000000" opacity="1.000000" stroke="none" 
	d="
M344.280640,158.197479 
	C348.425873,146.515167 355.788879,136.892166 362.570465,126.920433 
	C371.209625,114.217323 382.687408,104.101402 393.327026,93.226265 
	C395.155151,91.357635 397.338562,89.836571 399.660889,88.000244 
	C405.707092,90.990997 409.348450,96.400978 413.851074,100.873230 
	C414.449310,101.467430 413.787537,102.665146 413.040131,103.500237 
	C411.965790,104.700684 410.295349,105.451149 409.892090,107.621140 
	C402.937653,114.714661 396.072845,121.457359 389.086548,128.505127 
	C378.288696,141.834442 364.128418,150.205963 349.684204,158.189926 
	C348.052338,159.091919 346.319000,159.732941 344.280640,158.197479 
z"/>
<path fill="#000000" opacity="1.000000" stroke="none" 
	d="
M400.341125,413.997192 
	C372.184601,391.156708 353.746185,365.946716 343.938721,344.310333 
	C353.034912,347.628296 360.660767,352.853302 368.238892,357.921906 
	C382.134979,367.216187 394.564697,378.342346 406.009979,390.536774 
	C408.718506,393.422607 411.269623,396.456238 414.047485,399.731995 
	C410.058411,405.004028 406.183502,410.229492 400.341125,413.997192 
z"/>
<path fill="#000000" opacity="1.000000" stroke="none" 
	d="
M110.671066,179.275848 
	C97.726456,170.594833 86.000732,161.231705 76.299934,149.236725 
	C73.194473,145.396835 69.132256,141.612747 64.575539,138.867477 
	C62.650307,137.707596 61.291920,136.189377 63.030624,133.697922 
	C66.002182,129.439896 68.774757,125.042358 71.771645,120.802910 
	C73.145119,118.859978 74.549698,117.348228 76.893486,120.298988 
	C84.937126,130.425659 95.611916,138.042068 104.000336,147.761246 
	C114.544632,159.978317 122.031113,174.223480 128.633499,190.651627 
	C121.956345,186.431061 116.465187,182.960159 110.671066,179.275848 
z"/>
<path fill="#000000" opacity="1.000000" stroke="none" 
	d="
M127.635780,311.799438 
	C123.928413,324.506073 117.306648,335.622406 110.064865,346.385254 
	C100.831177,360.108490 87.443871,369.962219 76.507385,382.101868 
	C74.741898,384.061584 73.640022,383.655884 72.404022,381.884277 
	C69.343765,377.497925 66.256630,373.127594 63.321480,368.658081 
	C62.135052,366.851440 61.822525,365.688599 64.318130,363.692993 
	C73.289825,356.518921 81.161522,348.125397 88.615738,338.931122 
	C94.922104,330.390472 103.170303,324.580688 111.680931,319.148529 
	C115.298721,316.839355 118.831894,314.363495 122.682770,312.408234 
	C124.201546,311.637085 125.611488,310.838318 127.635780,311.799438 
z"/>
<path fill="#000000" opacity="1.000000" stroke="none" 
	d="
M176.251373,103.746986 
	C180.647186,110.223633 184.847534,116.400826 188.832932,122.713707 
	C189.266602,123.400650 190.815903,124.516541 189.514267,125.664429 
	C188.713165,126.370888 187.740479,125.810631 186.777191,125.388855 
	C169.779449,117.946388 153.896255,108.890663 140.789352,95.401512 
	C134.565506,88.996155 128.576843,82.319939 121.563087,76.677994 
	C120.372360,75.720161 117.697777,73.840103 121.718689,71.405495 
	C126.105110,68.749573 130.200058,65.465828 134.607346,62.697475 
	C136.560013,61.470951 137.400757,61.707607 139.015320,63.376427 
	C146.013885,70.610153 153.175247,77.670288 160.615234,84.486824 
	C166.556595,89.930321 170.926102,97.089447 176.251373,103.746986 
z"/>
<path fill="#000000" opacity="1.000000" stroke="none" 
	d="
M189.708115,375.699524 
	C189.493729,379.748291 186.871521,382.355865 185.092117,385.391510 
	C178.820419,396.090820 170.997635,405.693268 163.088760,415.146515 
	C158.937393,420.108551 153.217636,423.727295 148.481354,428.241394 
	C144.924637,431.631348 141.497101,435.256744 138.619644,439.218628 
	C137.105103,441.303925 136.734375,440.697479 135.041687,439.673492 
	C129.490402,436.315247 124.258286,432.544952 118.924561,428.408081 
	C129.086273,418.625061 139.871078,409.596649 148.866547,398.358032 
	C158.647232,387.160950 171.191589,380.758881 184.310455,375.249939 
	C186.044418,374.521790 187.798874,374.029541 189.708115,375.699524 
z"/>
<path fill="#000000" opacity="1.000000" stroke="none" 
	d="
M366.321655,440.007050 
	C365.254272,439.853699 364.315887,439.740692 363.789703,439.215088 
	C351.943726,427.381866 339.815063,415.815948 329.987885,402.124969 
	C324.034302,393.830627 317.879089,385.687103 312.982910,375.858826 
	C326.485504,380.924530 338.155823,387.891388 349.270782,395.829529 
	C354.838196,399.805725 360.112457,404.126465 364.813232,409.188446 
	C370.632843,415.455292 376.845795,421.356903 383.041321,427.726929 
	C378.316376,432.872589 372.076294,435.799194 366.321655,440.007050 
z"/>
<path fill="#000000" opacity="1.000000" stroke="none" 
	d="
M377.206268,187.358978 
	C381.012665,174.318085 388.280975,163.367966 395.891876,152.595108 
	C400.539062,146.017258 405.779663,139.952377 411.685303,134.031448 
	C412.260071,133.701736 412.509735,133.499176 412.936371,133.132538 
	C413.134247,132.994202 413.014557,132.960220 412.997253,133.019958 
	C413.201782,132.813370 413.437042,132.559479 413.882935,132.148911 
	C414.080139,131.979813 413.960358,132.014160 413.977203,132.074158 
	C414.162537,131.858566 414.362061,131.607651 414.734375,131.186646 
	C418.530884,126.157089 423.689270,123.041496 428.604218,119.195831 
	C432.230713,123.895348 435.623718,128.610748 438.743652,133.500397 
	C439.335480,134.427933 441.042694,135.855621 438.995239,137.633667 
	C438.827515,137.948380 438.937744,138.026993 438.981018,137.974915 
	C438.785339,138.172791 438.549744,138.425888 438.121521,138.852112 
	C437.925995,139.022491 438.022156,139.021820 438.022186,138.973755 
	C437.797760,139.188339 437.562561,139.440948 437.119995,139.852448 
	C436.925079,140.023010 437.027985,140.007019 437.020325,139.955521 
	C436.826904,140.155029 436.625549,140.392792 436.271912,140.807007 
	C431.877472,145.852737 425.927582,149.055511 422.301941,154.988953 
	C421.803497,155.282425 421.617737,155.421707 421.166962,155.786987 
	C420.901978,156.012970 421.006195,156.029160 421.014618,155.977112 
	C420.799011,156.188232 420.562592,156.439819 420.120453,156.851929 
	C419.925476,157.022507 420.021759,157.027115 420.024475,156.978973 
	C419.792511,157.206482 419.535645,157.459381 419.019409,157.823273 
	C418.465027,157.954269 418.221832,158.088470 418.008972,158.575073 
	C414.489471,164.308029 409.805695,168.751282 404.708801,172.642471 
	C398.013031,177.754257 391.243744,182.809753 383.854187,186.940308 
	C381.774414,188.102829 379.780304,189.276855 377.206268,187.358978 
z"/>
<path fill="#000000" opacity="1.000000" stroke="none" 
	d="
M378.071472,79.818726 
	C372.310974,85.393806 366.765503,90.816490 361.094910,96.544273 
	C360.773926,97.143112 360.558105,97.421272 360.122009,97.857620 
	C359.924896,98.033943 360.031464,98.036476 360.033325,97.983215 
	C359.797974,98.203918 359.538605,98.454979 359.024597,98.822968 
	C358.238159,99.400955 357.684174,99.839172 357.046326,100.534668 
	C347.728943,112.301086 334.883240,118.613976 322.055450,124.902748 
	C320.074219,125.874039 317.823364,127.102539 315.164124,125.413696 
	C315.834534,118.450706 320.583862,113.816238 324.058075,108.578186 
	C331.128632,97.918076 339.413971,88.147781 347.995789,78.694305 
	C353.188843,72.973831 359.178162,67.976196 364.923492,62.331627 
	C369.059326,62.247330 371.442200,65.532730 374.669067,67.251305 
	C376.516998,68.235481 377.937561,70.134491 379.841003,70.877777 
	C383.369659,72.255753 382.282928,74.150352 380.881287,76.634186 
	C380.461182,76.958923 380.217712,77.093872 380.009369,77.586014 
	C379.784851,78.112823 379.573364,78.403328 379.130493,78.852829 
	C378.930511,79.034714 379.036224,79.030212 379.034546,78.977341 
	C378.804291,79.192078 378.556549,79.440422 378.071472,79.818726 
z"/>
<path fill="#000000" opacity="1.000000" stroke="none" 
	d="
M428.360565,382.900970 
	C423.352509,377.996277 417.783386,374.024414 412.914429,369.195496 
	C402.594574,358.960510 394.116241,347.482941 386.601990,335.166382 
	C382.599091,328.605225 379.083954,321.810150 376.156647,313.712585 
	C400.884521,326.947754 420.619293,345.251526 439.670868,364.924408 
	C437.478638,371.760681 432.824249,377.124878 428.360565,382.900970 
z"/>
<path fill="#000000" opacity="1.000000" stroke="none" 
	d="
M158.363159,276.177643 
	C159.921234,263.029358 161.145279,250.166550 159.112015,237.195038 
	C158.560898,233.679153 159.582520,230.015610 157.938293,226.005280 
	C165.247849,228.250595 172.063751,230.428162 178.935822,232.411102 
	C181.441360,233.134094 181.743958,235.533173 181.783432,236.999084 
	C182.046921,246.786377 181.895462,256.585358 181.819183,266.380035 
	C181.814651,266.962219 181.295197,267.540375 180.956940,268.542175 
	C180.763107,269.442810 180.715942,270.104797 180.333939,270.315521 
	C173.587769,274.036896 166.709381,277.337524 158.363159,276.177643 
z"/>
<path fill="#000000" opacity="1.000000" stroke="none" 
	d="
M276.541565,156.062378 
	C273.869293,163.620148 271.519989,171.381424 269.135376,179.527008 
	C258.678406,179.912994 248.380081,179.899887 238.083786,180.038208 
	C235.499359,180.072906 234.389084,179.243530 233.740524,176.589951 
	C232.438690,171.263336 230.892288,165.944107 228.825058,160.875427 
	C227.456863,157.520706 228.235687,156.596359 231.443054,157.022400 
	C240.649765,158.245331 249.908279,158.213043 259.141571,157.912216 
	C264.815033,157.727371 270.460388,156.678680 276.541565,156.062378 
z"/>
<path fill="#000000" opacity="1.000000" stroke="none" 
	d="
M234.862640,322.434540 
	C244.176727,322.062103 253.321991,322.064880 262.466522,321.985138 
	C267.364777,321.942444 270.149292,323.809692 271.142944,329.043091 
	C272.133209,334.258667 274.245667,339.261230 276.123474,345.166595 
	C260.128967,343.754608 244.537735,343.310333 228.533615,344.984680 
	C228.350189,340.185760 230.796432,336.035400 232.017532,331.526917 
	C232.814606,328.584015 233.795166,325.690857 234.862640,322.434540 
z"/>
<path fill="#D27728" opacity="1.000000" stroke="none" 
	d="
M160.217575,342.858398 
	C149.199173,347.578735 139.450958,353.784821 130.005356,360.502289 
	C126.551155,362.958832 123.151840,365.492584 119.371872,368.030396 
	C123.695724,360.853394 128.275482,353.569763 133.085968,346.441833 
	C136.989929,340.657104 139.149887,333.857971 143.895386,328.182678 
	C149.995087,321.099976 158.467224,318.962524 166.325150,315.721954 
	C167.752533,315.133270 169.242111,315.262695 170.750854,316.637573 
	C169.496017,326.350586 165.891281,334.875427 160.217575,342.858398 
z"/>
<path fill="#D27728" opacity="1.000000" stroke="none" 
	d="
M190.223938,375.848694 
	C183.470230,377.274506 177.700851,380.335052 172.145660,383.551880 
	C164.461319,388.001709 157.177689,393.143524 149.365326,398.023254 
	C149.968903,394.563995 152.601456,392.142761 154.757050,389.482910 
	C162.180618,380.322601 167.606415,369.828491 174.795593,360.145142 
	C179.619507,353.861572 186.832764,352.886475 193.304581,350.575378 
	C196.487778,349.438629 199.726105,347.619598 203.622467,349.625488 
	C200.583008,359.068024 196.955933,368.103851 190.223938,375.848694 
z"/>
<path fill="#D27728" opacity="1.000000" stroke="none" 
	d="
M128.179703,311.802246 
	C114.358955,319.822388 101.323341,328.355408 89.264236,338.772186 
	C89.850395,334.208008 93.276291,331.046509 95.624329,327.341553 
	C101.232475,318.492432 105.082458,308.814087 109.897629,299.200073 
	C118.814186,294.327850 127.553581,289.766052 136.610199,285.046082 
	C135.248474,294.146454 132.973785,303.215485 128.179703,311.802246 
z"/>
<path fill="#000000" opacity="1.000000" stroke="none" 
	d="
M206.539124,175.234055 
	C200.235153,174.822266 194.894913,172.162979 189.200714,170.974869 
	C187.913269,170.706268 187.378235,169.856674 186.913925,168.684570 
	C183.411346,159.842667 179.255661,151.290680 174.517746,142.010406 
	C184.225098,145.525391 192.911011,149.256683 202.068939,151.619888 
	C205.170776,152.420334 205.510895,155.821762 206.497589,158.188797 
	C208.970291,164.120697 210.875214,170.289276 213.229202,176.993210 
	C210.795303,176.383057 208.856995,175.897156 206.539124,175.234055 
z"/>
<path fill="#000000" opacity="1.000000" stroke="none" 
	d="
M170.989761,316.983276 
	C163.265869,318.453705 156.561234,322.394470 149.618393,325.761017 
	C148.030472,326.531006 146.406830,327.227356 144.435944,327.921143 
	C146.178268,319.978699 150.085663,312.709808 152.230301,304.790131 
	C152.668121,303.173401 152.313629,301.156097 153.889694,299.448486 
	C155.415451,296.707947 157.359894,295.157654 160.000015,294.156311 
	C164.037277,292.625092 168.098694,291.190521 172.231659,289.958344 
	C173.987747,289.434723 175.804230,288.966614 177.651886,290.795471 
	C177.093521,299.390106 174.265656,307.177917 171.973846,315.495667 
	C171.772797,316.175659 171.569275,316.432312 171.139496,316.820496 
	C170.958359,316.987854 170.998505,317.003174 170.989761,316.983276 
z"/>
<path fill="#000000" opacity="1.000000" stroke="none" 
	d="
M162.641449,182.273346 
	C173.067322,184.021408 174.207489,192.415710 175.771530,199.987457 
	C176.498718,203.507797 180.012802,207.954987 177.149734,210.455841 
	C175.047424,212.292206 170.664902,208.870697 167.270706,207.905212 
	C163.704788,206.890869 160.255508,205.410065 156.846054,203.924683 
	C154.975342,203.109680 153.409546,202.283630 152.768860,199.609268 
	C150.709915,191.014755 147.177353,182.860611 143.654953,173.879318 
	C150.733856,175.943619 155.906616,180.473083 162.641449,182.273346 
z"/>
<path fill="#000000" opacity="1.000000" stroke="none" 
	d="
M203.964050,349.517578 
	C194.265884,352.369415 184.958633,355.873016 175.428497,359.841644 
	C177.452179,352.324524 182.313110,345.821960 184.954437,338.306427 
	C185.596085,336.480713 186.308380,334.679779 187.028412,332.491913 
	C187.234070,331.828888 187.433914,331.567749 187.857513,331.174072 
	C188.046875,331.015198 187.999756,330.997040 188.010468,331.019897 
	C189.534592,328.969360 191.499725,327.625519 194.079819,327.244781 
	C200.143860,326.349792 205.790787,322.691620 212.585449,324.772339 
	C210.509689,333.289429 207.616486,341.352997 203.964050,349.517578 
z"/>
<path fill="#000000" opacity="1.000000" stroke="none" 
	d="
M205.858032,218.045502 
	C201.574814,217.914368 199.013718,217.367279 198.711945,212.147583 
	C198.354477,205.964645 196.191254,199.886093 194.734238,193.423172 
	C201.942947,194.392441 208.370621,196.613205 215.115265,197.041565 
	C217.350037,197.183502 218.761627,197.981766 219.129822,200.854446 
	C219.953400,207.280106 222.089966,213.525589 222.033920,220.365143 
	C216.594193,219.877777 211.329544,219.847366 205.858032,218.045502 
z"/>
<path fill="#000000" opacity="1.000000" stroke="none" 
	d="
M221.585022,280.755127 
	C222.546280,288.587769 219.373398,295.628601 218.958435,303.462433 
	C218.174515,304.760284 217.749405,306.200378 216.635635,306.438934 
	C209.744217,307.915192 203.048386,310.827667 195.414001,309.236572 
	C195.801926,301.198456 198.810745,293.825134 199.041290,285.544312 
	C200.549591,282.953217 202.514420,281.783600 205.203171,281.532623 
	C210.545029,281.034027 215.751801,278.646454 221.585022,280.755127 
z"/>
<path fill="#D27728" opacity="1.000000" stroke="none" 
	d="
M194.816742,309.211182 
	C201.246902,307.084686 207.574020,305.946075 213.938126,305.069824 
	C215.411606,304.866943 216.793060,304.626740 218.526489,303.949493 
	C217.810928,310.946960 215.899109,317.795959 213.145309,324.762573 
	C204.882141,327.029572 196.856644,329.016266 188.426178,331.022858 
	C189.036575,323.496887 191.924118,316.517517 194.816742,309.211182 
z"/>
<path fill="#D27728" opacity="1.000000" stroke="none" 
	d="
M178.074951,290.755493 
	C169.773880,292.453796 162.349777,295.915619 154.424011,299.047913 
	C154.444778,291.477966 156.692947,284.169098 157.977005,276.282196 
	C165.423843,273.598572 172.778198,271.312500 180.515533,268.995178 
	C181.721359,276.322815 180.579300,283.437042 178.074951,290.755493 
z"/>
<path fill="#000000" opacity="1.000000" stroke="none" 
	d="
M202.325531,264.277466 
	C202.041916,256.400696 202.235031,248.897842 201.911072,241.417374 
	C201.750381,237.707199 203.738907,237.496185 206.145248,238.133194 
	C210.612335,239.315720 215.088333,240.029053 219.711319,240.033798 
	C222.532043,240.036682 224.224030,241.126190 224.063278,244.483170 
	C223.816620,249.634109 223.993317,254.805344 223.963104,260.428741 
	C222.695374,263.030853 220.920822,264.120575 218.374390,264.368469 
	C214.780182,264.718414 211.210831,265.356995 207.626450,265.841461 
	C205.793304,266.089264 203.998886,266.203735 202.325531,264.277466 
z"/>
<path fill="#000000" opacity="1.000000" stroke="none" 
	d="
M263.424805,200.040100 
	C263.756042,207.181213 262.232239,214.103394 261.003998,221.479340 
	C255.827652,221.924026 250.686707,221.907913 245.548447,222.017929 
	C243.011154,222.072235 242.174179,220.964081 241.936005,218.471848 
	C241.353729,212.379089 240.427872,206.319168 239.609711,200.010040 
	C247.394806,200.010040 255.179352,200.010040 263.424805,200.040100 
z"/>
<path fill="#000000" opacity="1.000000" stroke="none" 
	d="
M242.923553,280.405151 
	C247.753128,280.021027 252.434326,280.346527 257.037262,279.887482 
	C260.489838,279.543182 261.577637,281.581268 261.820221,283.920410 
	C262.343353,288.964844 262.959747,293.974823 263.968445,298.945190 
	C264.455994,301.347473 263.284271,302.085449 260.929871,302.041656 
	C254.292542,301.918121 247.651443,301.996704 240.548462,301.981476 
	C240.166977,294.803375 241.727783,287.824860 242.923553,280.405151 
z"/>
<path fill="#D27728" opacity="1.000000" stroke="none" 
	d="
M201.891296,264.269714 
	C209.143311,263.394592 216.165573,262.462708 223.527069,260.955322 
	C224.147568,267.454132 224.295914,274.013733 222.158783,280.726440 
	C216.491867,282.025543 211.089828,283.233643 205.621323,283.876678 
	C203.643021,284.109283 201.852463,284.934174 199.482269,285.067810 
	C199.954880,278.292877 200.837692,271.468994 201.891296,264.269714 
z"/>
<path fill="#000000" opacity="1.000000" stroke="none" 
	d="
M259.503479,242.049316 
	C259.978210,246.880264 259.835480,251.681305 260.057831,256.465363 
	C260.191620,259.343781 259.158325,260.202881 256.387604,260.050690 
	C252.596603,259.842407 248.786148,259.987762 244.522690,259.936096 
	C244.041199,255.087234 244.189484,250.275009 243.938599,245.483704 
	C243.784927,242.549301 244.870132,241.795151 247.612762,241.948273 
	C251.411118,242.160324 255.229797,242.008362 259.503479,242.049316 
z"/>
<path fill="#D27728" opacity="1.000000" stroke="none" 
	d="
M187.829758,331.145813 
	C187.882065,331.313202 187.717255,331.611206 187.310547,332.012787 
	C187.249969,331.836395 187.431320,331.556427 187.829758,331.145813 
z"/>
<path fill="#D37728" opacity="1.000000" stroke="none" 
	d="
M176.852402,430.099670 
	C176.880844,430.306366 176.694504,430.597046 176.240875,430.853638 
	C176.159897,430.571014 176.381241,430.359070 176.852402,430.099670 
z"/>
<path fill="#D27728" opacity="1.000000" stroke="none" 
	d="
M171.175018,316.856750 
	C171.121185,316.688782 171.284012,316.389679 171.689026,315.986938 
	C171.751373,316.164062 171.571518,316.444855 171.175018,316.856750 
z"/>
<path fill="#000000" opacity="1.000000" stroke="none" 
	d="
M393.642181,201.780090 
	C392.239838,208.689758 390.430573,215.270935 388.971649,221.928894 
	C385.810120,236.356598 385.400574,250.858978 386.790802,265.615723 
	C387.885071,277.231201 391.025635,288.270966 394.045959,300.189636 
	C387.575745,296.675140 381.939270,292.754730 375.705505,290.449341 
	C368.258545,287.695251 366.456818,282.571289 365.563873,275.455139 
	C363.868805,261.946320 363.535828,248.559036 364.772949,234.989075 
	C365.325806,228.925369 366.698486,222.998566 367.015625,216.505203 
	C367.240662,215.813995 367.463104,215.556763 367.883911,215.136490 
	C368.074066,214.966370 367.980316,215.052704 368.023315,215.099731 
	C369.354401,212.967758 371.087708,211.452301 373.420013,210.242310 
	C377.964813,207.884476 382.599487,205.677246 386.976959,202.979309 
	C388.856171,201.821106 390.844849,200.179626 393.642181,201.780090 
z"/>
<path fill="#000000" opacity="1.000000" stroke="none" 
	d="
M322.003601,266.515381 
	C321.999176,256.411346 322.126709,246.757263 321.925232,237.110062 
	C321.859161,233.948013 322.719147,232.345642 325.921600,231.557220 
	C331.115295,230.278580 336.366943,228.941635 341.267761,226.860703 
	C345.142517,225.215454 345.332825,227.014343 344.964752,229.717941 
	C343.663208,239.278656 344.255005,248.890152 343.911865,258.474396 
	C343.738190,263.324646 345.123840,267.956146 345.045319,272.759918 
	C344.997162,275.705017 344.550507,276.527588 341.330292,275.225983 
	C336.218445,273.159790 330.820312,271.780365 325.499237,270.265106 
	C323.650513,269.738647 321.889893,269.436066 322.003601,266.515381 
z"/>
<path fill="#F7941D" opacity="1.000000" stroke="none" 
	d="
M343.823486,158.187469 
	C352.906433,154.582016 360.506012,149.014282 368.457275,144.057220 
	C375.534760,139.644882 381.659637,133.995880 388.619232,128.896454 
	C388.156769,132.622330 384.883179,134.742813 382.724426,137.579834 
	C375.385345,147.224960 369.163544,157.534363 363.449005,168.182663 
	C362.594757,169.774460 362.003906,171.545853 360.179382,172.881714 
	C355.447449,178.928879 348.594238,180.819611 342.318726,183.570770 
	C339.305054,184.891968 336.402618,187.580490 332.333435,185.333817 
	C335.165253,175.893738 337.801514,166.486099 343.823486,158.187469 
z"/>
<path fill="#F7941D" opacity="1.000000" stroke="none" 
	d="
M314.930481,125.075653 
	C329.537354,119.782120 342.513580,111.608772 354.603821,101.915436 
	C355.094116,101.522339 355.712158,101.288536 356.616547,100.886223 
	C354.829651,106.479843 350.326263,110.519386 346.810730,115.230553 
	C340.779236,123.313507 335.899414,132.129791 330.133240,140.784027 
	C329.523987,141.478271 328.940826,141.486694 328.174255,141.794434 
	C327.933472,141.936829 327.990417,142.002426 327.966064,141.968140 
	C326.407623,144.487793 323.968903,145.850464 321.321259,146.913757 
	C316.403442,148.888763 311.470764,150.845444 306.309601,152.090897 
	C304.436859,152.542801 302.409058,153.262161 300.340240,151.357559 
	C303.492554,142.499130 307.421600,134.154419 312.858032,126.198029 
	C313.484253,125.516945 314.064117,125.511719 314.831055,125.215210 
	C315.065979,125.063568 314.952820,125.019119 314.930481,125.075653 
z"/>
<path fill="#F7941D" opacity="1.000000" stroke="none" 
	d="
M394.147644,201.832031 
	C387.956207,205.201981 381.910004,208.140457 376.142181,211.549866 
	C373.764404,212.955399 371.114655,213.585617 368.433960,215.076324 
	C368.333435,205.914780 371.714600,197.593124 375.849426,189.171387 
	C376.488678,188.482620 376.485779,187.885956 376.911163,187.176514 
	C377.096863,186.966980 376.997864,186.953949 376.992126,187.003448 
	C382.760590,186.358704 386.710724,182.265701 391.233856,179.297485 
	C400.453217,173.247452 409.176208,166.530106 417.661682,158.957672 
	C417.684265,159.889999 417.726990,161.248505 417.081421,162.058182 
	C407.906891,173.564575 401.209564,186.464630 395.493073,199.933609 
	C395.239105,200.531998 394.772552,201.040146 394.147644,201.832031 
z"/>
<path fill="#000000" opacity="1.000000" stroke="none" 
	d="
M332.016541,185.478287 
	C341.564301,182.170059 350.180023,177.193848 359.520874,173.048889 
	C359.257050,179.509781 354.349396,184.541763 353.696045,190.840057 
	C352.696381,200.477356 346.131073,204.221619 338.197296,206.840393 
	C334.352722,208.109406 330.461334,209.236725 326.023834,210.602859 
	C326.647919,201.879562 329.862091,193.993439 332.016541,185.478287 
z"/>
<path fill="#000000" opacity="1.000000" stroke="none" 
	d="
M300.006470,151.456940 
	C309.585602,149.558121 318.221771,145.290253 327.564636,141.971146 
	C327.435425,147.929108 323.297668,152.453766 321.420715,157.925323 
	C320.123230,161.707504 318.037781,165.234756 316.985413,169.540558 
	C310.662445,175.751907 302.445435,176.240112 294.641815,177.846313 
	C293.493805,178.082596 292.393280,177.497223 291.289886,176.271057 
	C293.791779,167.804184 296.461700,159.658905 300.006470,151.456940 
z"/>
<path fill="#000000" opacity="1.000000" stroke="none" 
	d="
M354.287415,326.701599 
	C347.548157,323.334137 341.264740,319.858734 334.386780,317.670776 
	C333.266388,317.314362 332.411896,316.603638 331.831268,315.094452 
	C329.309509,308.539520 328.092010,301.641968 326.131287,294.947693 
	C325.271912,292.013733 327.245209,291.435028 329.563385,292.293945 
	C335.348114,294.437195 341.104797,296.663483 346.811066,299.006622 
	C348.520874,299.708710 350.483185,300.081207 351.062531,302.579803 
	C353.217834,311.874939 357.123810,320.568024 361.280731,329.984436 
	C358.570526,328.741394 356.581451,327.829102 354.287415,326.701599 
z"/>
<path fill="#000000" opacity="1.000000" stroke="none" 
	d="
M295.328613,326.954132 
	C302.602081,327.693848 308.895874,330.631256 315.582062,331.986298 
	C317.341949,332.342987 316.842590,333.674591 317.262390,334.597809 
	C321.042297,342.910645 324.780853,351.242310 328.738861,360.028687 
	C321.305664,357.318298 314.205261,354.158630 306.785889,352.219513 
	C301.625214,350.870758 298.531616,348.577118 297.057556,343.459229 
	C295.666504,338.629456 293.603333,333.996429 292.046570,329.208313 
	C291.767334,328.349548 290.077301,327.296417 291.705841,326.249573 
	C292.870850,325.500732 293.881195,326.490173 295.328613,326.954132 
z"/>
<path fill="#000000" opacity="1.000000" stroke="none" 
	d="
M301.559418,236.791504 
	C301.900726,246.057129 301.900726,255.043167 301.900726,264.323364 
	C295.270081,263.537109 288.741699,262.684631 282.192963,262.037903 
	C280.407349,261.861542 280.266846,261.030975 279.939667,259.554169 
	C278.634705,253.664246 278.783386,247.830902 280.016357,241.548157 
	C280.702972,239.988861 281.159088,238.434219 282.599945,238.249054 
	C288.782990,237.454437 294.797882,234.739731 301.559418,236.791504 
z"/>
<path fill="#000000" opacity="1.000000" stroke="none" 
	d="
M308.695068,192.735092 
	C307.446075,200.756165 305.927460,208.425583 304.232666,216.441406 
	C299.629578,221.062256 287.889221,223.216644 282.321655,220.327530 
	C281.680450,212.404831 284.261475,205.285522 285.018036,197.504257 
	C292.328003,193.020584 300.035858,191.006256 308.695068,192.735092 
z"/>
<path fill="#000000" opacity="1.000000" stroke="none" 
	d="
M305.504333,308.247314 
	C298.750702,307.657196 292.803070,304.757904 286.326355,304.901428 
	C284.913422,304.932739 285.200409,303.635406 284.969727,302.711182 
	C283.310730,296.063629 282.257385,289.310974 281.537933,282.072876 
	C288.888977,282.023438 296.126007,284.045197 303.416901,285.356537 
	C305.925720,285.807739 304.647491,288.745422 305.052094,290.571320 
	C306.211029,295.801483 307.381927,301.030182 308.655243,306.233246 
	C309.382690,309.205780 308.227509,309.485870 305.504333,308.247314 
z"/>
<path fill="#F7941D" opacity="1.000000" stroke="none" 
	d="
M309.123138,192.752106 
	C301.189911,193.887817 293.805878,196.985016 285.465820,197.048660 
	C286.724945,190.199356 288.061035,183.214035 290.888916,176.260605 
	C299.756592,175.384842 307.809692,172.027969 316.573181,169.960724 
	C314.407928,177.421661 311.844757,184.919556 309.123138,192.752106 
z"/>
<path fill="#F7941D" opacity="1.000000" stroke="none" 
	d="
M281.852295,220.234589 
	C289.295380,220.061951 296.187317,218.003723 303.639374,216.878601 
	C304.184967,223.380402 303.093170,229.867508 302.131561,236.728455 
	C296.249756,238.047485 290.600067,239.031281 284.946960,239.995026 
	C283.552948,240.232681 281.979980,239.474014 280.401245,240.936310 
	C279.890198,234.211838 279.581604,227.290710 281.852295,220.234589 
z"/>
<path fill="#000000" opacity="1.000000" stroke="none" 
	d="
M314.891113,124.700920 
	C314.862549,125.780045 314.328979,125.987152 313.344818,125.939880 
	C313.595032,125.380608 314.155640,124.859436 314.891113,124.700920 
z"/>
<path fill="#F7941D" opacity="1.000000" stroke="none" 
	d="
M330.099609,67.909790 
	C330.303741,67.636169 330.820221,67.310570 331.654907,66.903671 
	C331.452698,67.167519 330.932312,67.512665 330.099609,67.909790 
z"/>
<path fill="#000000" opacity="1.000000" stroke="none" 
	d="
M328.111145,142.299484 
	C328.136841,141.220612 328.670593,141.012634 329.655212,141.052200 
	C329.407135,141.610474 328.847992,142.136307 328.111145,142.299484 
z"/>
<path fill="#000000" opacity="1.000000" stroke="none" 
	d="
M376.785675,187.048615 
	C378.339844,187.739334 377.017365,188.103378 376.470032,188.787674 
	C376.231995,188.328339 376.353241,187.729294 376.785675,187.048615 
z"/>
<path fill="#F7941D" opacity="1.000000" stroke="none" 
	d="
M379.098694,78.825760 
	C379.105774,78.710312 379.281067,78.385910 379.710541,77.930428 
	C379.732147,78.071831 379.499512,78.344315 379.098694,78.825760 
z"/>
<path fill="#F7941D" opacity="1.000000" stroke="none" 
	d="
M378.051514,79.794724 
	C378.065704,79.667465 378.274963,79.363815 378.758545,78.992310 
	C378.770752,79.155746 378.508636,79.387047 378.051514,79.794724 
z"/>
<path fill="#F7941D" opacity="1.000000" stroke="none" 
	d="
M360.094299,97.833038 
	C360.099609,97.713440 360.274292,97.392921 360.709381,96.960892 
	C360.734436,97.110298 360.499054,97.371216 360.094299,97.833038 
z"/>
<path fill="#F7941D" opacity="1.000000" stroke="none" 
	d="
M358.994934,98.784790 
	C359.021027,98.663734 359.249939,98.364738 359.756989,97.997841 
	C359.756012,98.155571 359.476868,98.381210 358.994934,98.784790 
z"/>
<path fill="#F7941D" opacity="1.000000" stroke="none" 
	d="
M367.908997,215.160034 
	C367.900330,215.278915 367.726562,215.591431 367.290344,215.991730 
	C367.266510,215.837570 367.505188,215.595627 367.908997,215.160034 
z"/>
<path fill="#F28B19" opacity="1.000000" stroke="none" 
	d="
M414.701263,131.159271 
	C414.758667,131.313110 414.641205,131.634308 414.258911,132.044830 
	C414.171417,131.864944 414.348877,131.595779 414.701263,131.159271 
z"/>
<path fill="#F7941D" opacity="1.000000" stroke="none" 
	d="
M436.305908,140.834641 
	C436.252502,140.682632 436.369751,140.368561 436.749817,139.979248 
	C436.821625,140.151596 436.642914,140.407791 436.305908,140.834641 
z"/>
<path fill="#F7941D" opacity="1.000000" stroke="none" 
	d="
M418.994995,157.791504 
	C419.014282,157.662506 419.242676,157.364182 419.749115,156.998352 
	C419.752808,157.161285 419.478455,157.391724 418.994995,157.791504 
z"/>
<path fill="#F7941D" opacity="1.000000" stroke="none" 
	d="
M420.111298,156.842499 
	C420.107239,156.704193 420.289001,156.385864 420.746887,155.996307 
	C420.781067,156.170868 420.539093,156.416672 420.111298,156.842499 
z"/>
<path fill="#F28B19" opacity="1.000000" stroke="none" 
	d="
M413.892883,132.159271 
	C413.898895,132.300430 413.717621,132.621048 413.258179,133.010696 
	C413.221832,132.832718 413.463715,132.585709 413.892883,132.159271 
z"/>
<path fill="#F28B19" opacity="1.000000" stroke="none" 
	d="
M412.931824,133.127380 
	C412.938873,133.298126 412.743500,133.602051 412.268799,133.892273 
	C412.189728,133.617035 412.436371,133.411026 412.931824,133.127380 
z"/>
<path fill="#F7941D" opacity="1.000000" stroke="none" 
	d="
M438.111938,138.841583 
	C438.108093,138.703598 438.290192,138.384705 438.748322,137.994339 
	C438.782196,138.168777 438.540039,138.414719 438.111938,138.841583 
z"/>
<path fill="#F7941D" opacity="1.000000" stroke="none" 
	d="
M437.110718,139.842926 
	C437.106750,139.704758 437.288452,139.386505 437.746155,138.996964 
	C437.780273,139.171402 437.538330,139.417130 437.110718,139.842926 
z"/>
<path fill="#F7941D" opacity="1.000000" stroke="none" 
	d="
M421.089264,155.874878 
	C421.082825,155.712646 421.263672,155.412323 421.716858,155.127563 
	C421.796356,155.394714 421.558807,155.592606 421.089264,155.874878 
z"/>
</svg>
